<svg width="30" height="12" viewBox="0 0 30 12" fill="none" xmlns="http://www.w3.org/2000/svg">
<g clip-path="url(#clip0_5621_207)">
<path d="M29.3384 2.91972C29.0043 1.68004 27.9443 0.79237 26.6943 0.690839C20.1439 0.160438 13.6597 0.271547 8.32255 1.09289C5.20317 1.57468 2.47715 2.29737 0.355896 3.27699C3.04221 12.5508 16.7183 14.8634 18.6312 6.35021C18.6431 6.29609 18.6576 6.24197 18.6749 6.18905C18.7223 6.04298 18.7884 5.90362 18.8809 5.78173C19.0526 5.55976 19.2717 5.41225 19.5107 5.33658H19.5121C20.2012 5.11604 21.0316 5.49367 21.1911 6.41774C21.7377 9.97681 23.9501 11.7143 27.183 11.5668C27.777 11.5398 28.3103 11.188 28.5783 10.6439C28.6654 10.4653 28.7485 10.2773 28.8263 10.0824C29.6568 7.99026 29.9023 5.0078 29.3386 2.91972H29.3384ZM15.6992 3.17546C16.103 3.23222 16.4067 3.58015 16.4291 3.99681C16.6695 8.50582 11.9224 10.4464 8.47836 8.16483C7.84206 7.74386 7.36156 7.11193 7.0962 6.38541C7.01444 6.16223 6.94693 5.94026 6.89414 5.71828C6.69091 4.85886 7.14899 3.97669 7.96072 3.67905C9.85632 2.98629 12.6286 2.74252 15.6992 3.1757V3.17546ZM22.9702 4.10097C23.015 3.68695 23.3173 3.35123 23.7146 3.26191C25.2538 2.91685 26.7112 2.902 27.816 3.62732C28.3599 3.9846 28.6701 4.61796 28.6701 5.27959C28.6661 7.98332 27.6906 9.67078 25.7646 9.09848C25.2089 8.93349 24.7219 8.59226 24.3231 8.16339C23.2089 6.96179 22.8181 5.45822 22.9699 4.10097H22.9702Z" fill="#F2C94C"/>
<g opacity="0.6">
<path d="M6.38234 6.44192C6.43513 6.6639 6.5024 6.88588 6.5844 7.10905C6.84976 7.83581 7.33025 8.46774 7.96656 8.88847C10.5809 10.6202 13.9437 9.91767 15.3084 7.50751C13.7335 9.31734 10.8087 9.70862 8.47836 8.16483C7.84206 7.74386 7.36156 7.11193 7.0962 6.38541C7.01444 6.16223 6.94693 5.94026 6.89414 5.71828C6.81028 5.36364 6.84041 5.00589 6.96025 4.68597C6.46596 5.09664 6.22466 5.77551 6.38234 6.44192Z" fill="white"/>
<path d="M18.3689 6.50562C18.2764 6.6275 18.2105 6.76687 18.1629 6.91294C18.1456 6.96562 18.1311 7.01974 18.1192 7.07385C17.9396 7.87341 17.656 8.57742 17.2876 9.18923C17.9085 8.42919 18.3754 7.48716 18.631 6.35021C18.6403 6.30782 18.6525 6.26592 18.6651 6.22401C18.5565 6.29896 18.4563 6.39211 18.3687 6.50538L18.3689 6.50562Z" fill="white"/>
<path d="M29.3384 2.91972C29.0043 1.68004 27.9443 0.79237 26.6943 0.690839C20.144 0.160438 13.6597 0.271547 8.32256 1.09289C5.20317 1.57468 2.47715 2.29737 0.355896 3.27699C0.398877 3.4257 0.445128 3.57273 0.493715 3.71784C2.51102 2.88093 5.00041 2.25067 7.81075 1.81654C13.1479 0.995192 19.6322 0.884083 26.1823 1.41472C27.4325 1.51625 28.4925 2.40393 28.8263 3.64361C29.39 5.73169 29.1445 8.71415 28.3141 10.8063C28.2617 10.9373 28.2064 11.0635 28.1496 11.1875C28.3248 11.041 28.4722 10.8583 28.5776 10.6442C28.6647 10.4655 28.7479 10.2776 28.8256 10.0827C29.6561 7.9905 29.9016 5.00804 29.3379 2.91996L29.3384 2.91972Z" fill="white"/>
<path d="M22.9758 4.07152C22.695 4.21687 22.4941 4.49464 22.4584 4.82486C22.3066 6.18211 22.6974 7.68567 23.8116 8.88727C24.2103 9.31615 24.6974 9.65737 25.2531 9.82236C26.3848 10.1588 27.1879 9.71413 27.6591 8.74192C27.1898 9.18612 26.5582 9.33434 25.7649 9.09872C25.2092 8.93373 24.7221 8.5925 24.3234 8.16363C23.2092 6.96203 22.8184 5.45846 22.9702 4.10121C22.9714 4.09115 22.9744 4.08158 22.9758 4.07152Z" fill="white"/>
</g>
<path d="M11.5638 12C7.11739 12 1.65274 9.03479 0.0152583 3.38069C-0.0354312 3.20565 0.0479612 3.01911 0.210074 2.94416C5.70463 0.406851 15.6157 -0.571338 26.7225 0.327111C28.1204 0.440136 29.3098 1.44275 29.6817 2.82203C30.3154 5.17184 29.9776 8.60496 28.8957 10.8077C28.5712 11.4679 27.9213 11.8985 27.1991 11.9313C23.7146 12.0903 21.3969 10.1006 20.84 6.47402C20.7685 6.06143 20.5134 5.7657 20.1413 5.66992C19.7762 5.57629 19.3913 5.70847 19.1605 6.00803C19.0789 6.11387 19.0177 6.25683 18.9783 6.43235C18.2219 9.79771 15.5671 11.8772 11.8768 11.9947C11.7733 11.9981 11.6685 11.9998 11.5638 11.9998V12ZM0.791018 3.47959C2.47475 8.71511 7.70137 11.398 11.8546 11.2658C15.2515 11.1576 17.5954 9.33627 18.2845 6.2688C18.3478 5.98744 18.4546 5.74774 18.6015 5.55641C19.0054 5.03152 19.6774 4.79829 20.3146 4.96232C20.9612 5.12874 21.4198 5.64884 21.5417 6.35357C22.0439 9.62482 24.0407 11.3437 27.1673 11.2021C27.6324 11.1811 28.051 10.904 28.2596 10.4794C29.2544 8.45386 29.5777 5.17567 28.9952 3.01647C28.7027 1.93196 27.7667 1.14343 26.666 1.05459C15.8668 0.181041 6.23745 1.08715 0.791018 3.47959Z" fill="#212020"/>
<path d="M26.4708 9.51202C26.2199 9.51202 25.9559 9.47155 25.6819 9.39014C25.1131 9.22108 24.5691 8.86932 24.1084 8.37268C23.0232 7.20292 22.5009 5.63327 22.6751 4.06649C22.7354 3.52555 23.1276 3.08327 23.6511 2.9657C25.51 2.54832 26.9251 2.68122 27.9767 3.37206C28.5974 3.77986 28.9674 4.49345 28.9665 5.28079C28.9643 7.14593 28.525 8.46894 27.6957 9.10662C27.3456 9.37601 26.9305 9.51202 26.4708 9.51202ZM23.7779 3.55956C23.5023 3.62158 23.296 3.85289 23.2645 4.13521C23.1101 5.52264 23.5742 6.91437 24.5382 7.95339C24.9267 8.37196 25.3794 8.66673 25.8473 8.80586C26.4462 8.98402 26.948 8.92128 27.3399 8.62004C28.0045 8.10879 28.3717 6.92252 28.3736 5.27983C28.3743 4.70968 28.0996 4.17473 27.6569 3.88378C26.7445 3.28442 25.4759 3.1781 23.7781 3.55932L23.7779 3.55956Z" fill="#212020"/>
<path d="M11.618 9.42701C10.4835 9.42701 9.32651 9.0889 8.31669 8.42009C7.64137 7.97278 7.10902 7.28793 6.81796 6.49197C6.7327 6.25873 6.66169 6.02287 6.60633 5.79059C6.36479 4.77409 6.90439 3.7437 7.86142 3.39337C9.90511 2.64554 12.7764 2.45613 15.74 2.87422C16.2808 2.95061 16.6952 3.41564 16.7251 3.98028C16.8337 6.01329 15.9701 7.73045 14.3555 8.69116C13.5284 9.18348 12.5811 9.42725 11.618 9.42725V9.42701ZM8.0609 3.96592C7.39096 4.21112 7.01348 4.93357 7.18283 5.64644C7.23235 5.85525 7.29659 6.06789 7.37344 6.27837C7.62011 6.95316 8.06931 7.53242 8.63858 7.90908C10.3202 9.02281 12.4475 9.12338 14.0577 8.16483C15.4725 7.32289 16.2287 5.80975 16.1329 4.01309C16.1182 3.73867 15.9189 3.51286 15.659 3.47622C12.7876 3.07106 10.0179 3.24946 8.0609 3.96568V3.96592Z" fill="#212020"/>
<g opacity="0.3">
<path d="M18.6747 6.18929C18.6576 6.24198 18.6429 6.29609 18.631 6.35045C16.7183 14.8635 3.04221 12.5508 0.355896 3.277C2.47738 2.29737 5.20317 1.57468 8.32255 1.09289C8.15764 1.24184 7.99249 1.39054 7.82757 1.53805L8.0308 1.56774C7.16604 2.03468 6.23681 2.57323 5.86984 3.50161C5.54631 4.31768 5.74043 5.2487 6.0191 6.08369C6.38351 7.1797 6.9168 8.26636 7.81052 8.9742C9.11467 10.0067 10.9075 10.0379 12.551 9.91743C13.359 9.85661 14.1761 9.76849 14.9337 9.47227C16.6127 8.81736 17.7784 7.23669 18.6114 5.60478C18.6352 5.79826 18.6576 5.99318 18.6747 6.18929Z" fill="#212020"/>
</g>
<g opacity="0.3">
<path d="M28.8261 10.0824C28.7483 10.2773 28.6651 10.4653 28.578 10.6439C28.3101 11.188 27.7768 11.5398 27.1828 11.5668C23.9498 11.7143 21.7375 9.97681 21.1909 6.41774C21.0311 5.49342 20.2009 5.11604 19.5118 5.33658H19.5104C19.3876 5.33921 19.2663 5.36507 19.1474 5.42183C19.1937 5.29467 19.2399 5.16752 19.2859 5.03893L18.9493 5.45032C19.2042 4.72644 20.1638 4.4774 20.8503 4.78989C21.5368 5.10382 21.9751 5.80616 22.26 6.51927C22.5453 7.23118 22.7181 7.9929 23.0837 8.66553C23.8349 10.0527 25.4215 10.9133 26.962 10.7725C27.6287 10.7117 28.2701 10.4641 28.8259 10.0824H28.8261Z" fill="#212020"/>
</g>
</g>
<defs>
<clipPath id="clip0_5621_207">
<rect width="30" height="12" fill="white"/>
</clipPath>
</defs>
</svg>
