<svg width="105" height="91" viewBox="0 0 105 91" fill="none" xmlns="http://www.w3.org/2000/svg">
<rect x="0.999847" y="13.5" width="102" height="77" rx="7.5" fill="#212020"/>
<rect x="0.999847" y="13.5" width="102" height="77" rx="7.5" stroke="#393737"/>
<path d="M33.6159 42.912C34.5652 42.912 35.2425 42.7253 35.6479 42.352C36.0639 41.9787 36.2719 41.4773 36.2719 40.848C36.2719 40.4427 36.1865 40.1013 36.0159 39.824C35.8452 39.5467 35.6212 39.328 35.3439 39.168C35.0665 38.9973 34.7412 38.88 34.3679 38.816C34.0052 38.7413 33.6319 38.704 33.2479 38.704H32.8639V37.488H33.3919C33.6585 37.488 33.9305 37.4613 34.2079 37.408C34.4959 37.3547 34.7572 37.2587 34.9919 37.12C35.2265 36.9813 35.4185 36.7947 35.5679 36.56C35.7172 36.3147 35.7919 36.0107 35.7919 35.648C35.7919 35.3493 35.7385 35.0933 35.6319 34.88C35.5252 34.6667 35.3812 34.4907 35.1999 34.352C35.0292 34.2133 34.8265 34.1173 34.5919 34.064C34.3679 34 34.1279 33.968 33.8719 33.968C33.3599 33.968 32.9225 34.0427 32.5599 34.192C32.2079 34.3413 31.9092 34.496 31.6639 34.656L31.0879 33.52C31.2159 33.4347 31.3759 33.344 31.5679 33.248C31.7705 33.1413 31.9945 33.0453 32.2399 32.96C32.4852 32.8747 32.7465 32.8053 33.0239 32.752C33.3119 32.688 33.6105 32.656 33.9199 32.656C34.5065 32.656 35.0132 32.7307 35.4399 32.88C35.8665 33.0187 36.2185 33.2213 36.4959 33.488C36.7732 33.744 36.9812 34.0533 37.1199 34.416C37.2585 34.768 37.3279 35.152 37.3279 35.568C37.3279 36.144 37.1625 36.64 36.8319 37.056C36.5012 37.4613 36.1012 37.7707 35.6319 37.984C35.9199 38.0693 36.1972 38.192 36.4639 38.352C36.7305 38.512 36.9599 38.7147 37.1519 38.96C37.3545 39.2053 37.5145 39.488 37.6319 39.808C37.7599 40.128 37.8239 40.4853 37.8239 40.88C37.8239 41.36 37.7385 41.808 37.5679 42.224C37.4079 42.6293 37.1519 42.9813 36.7999 43.28C36.4585 43.5787 36.0265 43.8133 35.5039 43.984C34.9812 44.1547 34.3625 44.24 33.6479 44.24C33.3705 44.24 33.0825 44.2187 32.7839 44.176C32.4959 44.1333 32.2239 44.08 31.9679 44.016C31.7119 43.952 31.4879 43.888 31.2959 43.824C31.1039 43.76 30.9652 43.7067 30.8799 43.664L31.1679 42.368C31.3492 42.4533 31.6479 42.5653 32.0639 42.704C32.4905 42.8427 33.0079 42.912 33.6159 42.912Z" fill="#F6F4F4"/>
<g clip-path="url(#clip0_1_1615)">
<path d="M73.3384 34.9197C73.0043 33.68 71.9443 32.7924 70.6943 32.6908C64.1439 32.1604 57.6597 32.2715 52.3226 33.0929C49.2032 33.5747 46.4771 34.2974 44.3559 35.277C47.0422 44.5508 60.7183 46.8634 62.6312 38.3502C62.6431 38.2961 62.6576 38.242 62.6749 38.1891C62.7223 38.043 62.7884 37.9036 62.8809 37.7817C63.0526 37.5598 63.2717 37.4122 63.5107 37.3366H63.5121C64.2012 37.116 65.0316 37.4937 65.1911 38.4177C65.7377 41.9768 67.9501 43.7143 71.183 43.5668C71.777 43.5398 72.3103 43.188 72.5783 42.6439C72.6654 42.4653 72.7485 42.2773 72.8263 42.0824C73.6568 39.9903 73.9023 37.0078 73.3386 34.9197H73.3384ZM59.6992 35.1755C60.103 35.2322 60.4067 35.5801 60.4291 35.9968C60.6695 40.5058 55.9224 42.4464 52.4784 40.1648C51.8421 39.7439 51.3616 39.1119 51.0962 38.3854C51.0144 38.1622 50.9469 37.9403 50.8941 37.7183C50.6909 36.8589 51.149 35.9767 51.9607 35.679C53.8563 34.9863 56.6286 34.7425 59.6992 35.1757V35.1755ZM66.9702 36.101C67.015 35.6869 67.3173 35.3512 67.7146 35.2619C69.2538 34.9168 70.7112 34.902 71.816 35.6273C72.3599 35.9846 72.6701 36.618 72.6701 37.2796C72.6661 39.9833 71.6906 41.6708 69.7646 41.0985C69.2089 40.9335 68.7219 40.5923 68.3231 40.1634C67.2089 38.9618 66.8181 37.4582 66.9699 36.101H66.9702Z" fill="#F2C94C"/>
<g opacity="0.6">
<path d="M50.3823 38.4419C50.4351 38.6639 50.5024 38.8859 50.5844 39.1091C50.8498 39.8358 51.3303 40.4677 51.9666 40.8885C54.5809 42.6202 57.9437 41.9177 59.3084 39.5075C57.7335 41.3173 54.8087 41.7086 52.4784 40.1648C51.8421 39.7439 51.3616 39.1119 51.0962 38.3854C51.0144 38.1622 50.9469 37.9403 50.8941 37.7183C50.8103 37.3636 50.8404 37.0059 50.9602 36.686C50.466 37.0966 50.2247 37.7755 50.3823 38.4419Z" fill="white"/>
<path d="M62.3689 38.5056C62.2764 38.6275 62.2105 38.7669 62.1629 38.9129C62.1456 38.9656 62.1311 39.0197 62.1192 39.0739C61.9396 39.8734 61.656 40.5774 61.2876 41.1892C61.9085 40.4292 62.3754 39.4872 62.631 38.3502C62.6403 38.3078 62.6525 38.2659 62.6651 38.224C62.5565 38.299 62.4563 38.3921 62.3687 38.5054L62.3689 38.5056Z" fill="white"/>
<path d="M73.3384 34.9197C73.0043 33.68 71.9443 32.7924 70.6943 32.6908C64.144 32.1604 57.6597 32.2715 52.3226 33.0929C49.2032 33.5747 46.4771 34.2974 44.3559 35.277C44.3989 35.4257 44.4451 35.5727 44.4937 35.7178C46.511 34.8809 49.0004 34.2507 51.8108 33.8165C57.1479 32.9952 63.6322 32.8841 70.1823 33.4147C71.4325 33.5163 72.4925 34.4039 72.8263 35.6436C73.39 37.7317 73.1445 40.7141 72.3141 42.8063C72.2617 42.9373 72.2064 43.0635 72.1496 43.1875C72.3248 43.041 72.4722 42.8583 72.5776 42.6442C72.6647 42.4655 72.7479 42.2776 72.8256 42.0827C73.6561 39.9905 73.9016 37.008 73.3379 34.92L73.3384 34.9197Z" fill="white"/>
<path d="M66.9758 36.0715C66.695 36.2169 66.4941 36.4946 66.4584 36.8249C66.3066 38.1821 66.6974 39.6857 67.8116 40.8873C68.2103 41.3161 68.6974 41.6574 69.2531 41.8224C70.3848 42.1588 71.1879 41.7141 71.6591 40.7419C71.1898 41.1861 70.5582 41.3343 69.7649 41.0987C69.2092 40.9337 68.7221 40.5925 68.3234 40.1636C67.2092 38.962 66.8184 37.4585 66.9702 36.1012C66.9714 36.0912 66.9744 36.0816 66.9758 36.0715Z" fill="white"/>
</g>
<path d="M55.5638 44C51.1174 44 45.6527 41.0348 44.0153 35.3807C43.9646 35.2056 44.048 35.0191 44.2101 34.9442C49.7046 32.4069 59.6157 31.4287 70.7225 32.3271C72.1204 32.4401 73.3098 33.4427 73.6817 34.822C74.3154 37.1718 73.9776 40.605 72.8957 42.8077C72.5712 43.4679 71.9213 43.8985 71.1991 43.9313C67.7146 44.0903 65.3969 42.1006 64.84 38.474C64.7685 38.0614 64.5134 37.7657 64.1413 37.6699C63.7762 37.5763 63.3913 37.7085 63.1605 38.008C63.0789 38.1139 63.0177 38.2568 62.9783 38.4324C62.2219 41.7977 59.5671 43.8772 55.8768 43.9947C55.7733 43.9981 55.6685 43.9998 55.5638 43.9998V44ZM44.791 35.4796C46.4747 40.7151 51.7014 43.398 55.8546 43.2658C59.2515 43.1576 61.5954 41.3363 62.2845 38.2688C62.3478 37.9874 62.4546 37.7477 62.6015 37.5564C63.0054 37.0315 63.6774 36.7983 64.3146 36.9623C64.9612 37.1287 65.4198 37.6488 65.5417 38.3536C66.0439 41.6248 68.0407 43.3437 71.1673 43.2021C71.6324 43.1811 72.051 42.904 72.2596 42.4794C73.2544 40.4539 73.5777 37.1757 72.9952 35.0165C72.7027 33.932 71.7667 33.1434 70.666 33.0546C59.8668 32.181 50.2375 33.0872 44.791 35.4796Z" fill="#212020"/>
<path d="M70.4708 41.512C70.2199 41.512 69.9559 41.4716 69.6819 41.3901C69.1131 41.2211 68.5691 40.8693 68.1084 40.3727C67.0232 39.2029 66.5009 37.6333 66.6751 36.0665C66.7354 35.5256 67.1276 35.0833 67.6511 34.9657C69.51 34.5483 70.9251 34.6812 71.9767 35.3721C72.5974 35.7799 72.9674 36.4934 72.9665 37.2808C72.9643 39.1459 72.525 40.4689 71.6957 41.1066C71.3456 41.376 70.9305 41.512 70.4708 41.512ZM67.7779 35.5596C67.5023 35.6216 67.296 35.8529 67.2645 36.1352C67.1101 37.5226 67.5742 38.9144 68.5382 39.9534C68.9267 40.372 69.3794 40.6667 69.8473 40.8059C70.4462 40.984 70.948 40.9213 71.3399 40.62C72.0045 40.1088 72.3717 38.9225 72.3736 37.2798C72.3743 36.7097 72.0996 36.1747 71.6569 35.8838C70.7445 35.2844 69.4759 35.1781 67.7781 35.5593L67.7779 35.5596Z" fill="#212020"/>
<path d="M55.618 41.427C54.4835 41.427 53.3265 41.0889 52.3167 40.4201C51.6414 39.9728 51.109 39.2879 50.818 38.492C50.7327 38.2587 50.6617 38.0229 50.6063 37.7906C50.3648 36.7741 50.9044 35.7437 51.8614 35.3934C53.9051 34.6455 56.7764 34.4561 59.74 34.8742C60.2808 34.9506 60.6952 35.4156 60.7251 35.9803C60.8337 38.0133 59.9701 39.7304 58.3555 40.6912C57.5284 41.1835 56.5811 41.4273 55.618 41.4273V41.427ZM52.0609 35.9659C51.391 36.2111 51.0135 36.9336 51.1828 37.6464C51.2324 37.8552 51.2966 38.0679 51.3734 38.2784C51.6201 38.9532 52.0693 39.5324 52.6386 39.9091C54.3202 41.0228 56.4475 41.1234 58.0577 40.1648C59.4725 39.3229 60.2287 37.8097 60.1329 36.0131C60.1182 35.7387 59.9189 35.5129 59.659 35.4762C56.7876 35.0711 54.0179 35.2495 52.0609 35.9657V35.9659Z" fill="#212020"/>
<g opacity="0.3">
<path d="M62.6747 38.1893C62.6576 38.242 62.6429 38.2961 62.631 38.3505C60.7183 46.8635 47.0422 44.5508 44.3559 35.277C46.4774 34.2974 49.2032 33.5747 52.3226 33.0929C52.1576 33.2418 51.9925 33.3905 51.8276 33.538L52.0308 33.5677C51.166 34.0347 50.2368 34.5732 49.8698 35.5016C49.5463 36.3177 49.7404 37.2487 50.0191 38.0837C50.3835 39.1797 50.9168 40.2664 51.8105 40.9742C53.1147 42.0067 54.9075 42.0379 56.551 41.9174C57.359 41.8566 58.1761 41.7685 58.9337 41.4723C60.6127 40.8174 61.7784 39.2367 62.6114 37.6048C62.6352 37.7983 62.6576 37.9932 62.6747 38.1893Z" fill="#212020"/>
</g>
<g opacity="0.3">
<path d="M72.8261 42.0824C72.7483 42.2773 72.6651 42.4653 72.578 42.6439C72.3101 43.188 71.7768 43.5398 71.1828 43.5668C67.9498 43.7143 65.7375 41.9768 65.1909 38.4177C65.0311 37.4934 64.2009 37.116 63.5118 37.3366H63.5104C63.3876 37.3392 63.2663 37.3651 63.1474 37.4218C63.1937 37.2947 63.2399 37.1675 63.2859 37.0389L62.9493 37.4503C63.2042 36.7264 64.1638 36.4774 64.8503 36.7899C65.5368 37.1038 65.9751 37.8062 66.26 38.5193C66.5453 39.2312 66.7181 39.9929 67.0837 40.6655C67.8349 42.0527 69.4215 42.9133 70.962 42.7725C71.6287 42.7117 72.2701 42.4641 72.8259 42.0824H72.8261Z" fill="#212020"/>
</g>
</g>
<path d="M33.4332 63.2C34.0412 62.9653 34.6332 62.6667 35.2092 62.304C35.7852 61.9307 36.3132 61.4667 36.7932 60.912H37.8492V72H36.3612V62.976C36.2332 63.0933 36.0732 63.216 35.8812 63.344C35.6999 63.472 35.4972 63.5947 35.2732 63.712C35.0599 63.8293 34.8305 63.9413 34.5852 64.048C34.3505 64.1547 34.1212 64.2453 33.8972 64.32L33.4332 63.2ZM48.9924 65.344C48.9924 67.5413 48.4431 69.2053 47.3444 70.336C46.2564 71.456 44.6351 72.0213 42.4804 72.032L42.4324 70.784C43.1044 70.784 43.7071 70.72 44.2404 70.592C44.7844 70.464 45.2591 70.2613 45.6644 69.984C46.0698 69.696 46.4058 69.328 46.6724 68.88C46.9498 68.432 47.1524 67.8827 47.2804 67.232C47.0031 67.36 46.6884 67.4667 46.3364 67.552C45.9844 67.6267 45.6218 67.664 45.2484 67.664C44.6191 67.664 44.0858 67.5733 43.6484 67.392C43.2111 67.2 42.8538 66.9493 42.5764 66.64C42.2991 66.32 42.0964 65.9573 41.9684 65.552C41.8511 65.136 41.7924 64.704 41.7924 64.256C41.7924 63.8613 41.8618 63.4507 42.0004 63.024C42.1391 62.5973 42.3471 62.208 42.6244 61.856C42.9124 61.504 43.2751 61.216 43.7124 60.992C44.1498 60.768 44.6671 60.656 45.2644 60.656C45.8724 60.656 46.4058 60.7627 46.8644 60.976C47.3338 61.1893 47.7231 61.4987 48.0324 61.904C48.3524 62.3093 48.5924 62.8053 48.7524 63.392C48.9124 63.968 48.9924 64.6187 48.9924 65.344ZM45.4084 66.448C45.7818 66.448 46.1338 66.416 46.4644 66.352C46.7951 66.2773 47.1151 66.1707 47.4244 66.032C47.4351 65.9147 47.4404 65.8027 47.4404 65.696C47.4404 65.5787 47.4404 65.4613 47.4404 65.344C47.4404 64.8853 47.4084 64.448 47.3444 64.032C47.2804 63.6053 47.1631 63.2373 46.9924 62.928C46.8324 62.608 46.6138 62.3573 46.3364 62.176C46.0591 61.984 45.7071 61.888 45.2804 61.888C44.9284 61.888 44.6298 61.9627 44.3844 62.112C44.1391 62.2613 43.9364 62.4533 43.7764 62.688C43.6164 62.912 43.4991 63.1627 43.4244 63.44C43.3604 63.7067 43.3284 63.968 43.3284 64.224C43.3284 64.9493 43.4991 65.504 43.8404 65.888C44.1924 66.2613 44.7151 66.448 45.4084 66.448ZM58.0237 65.344C58.0237 67.5413 57.4744 69.2053 56.3757 70.336C55.2877 71.456 53.6664 72.0213 51.5117 72.032L51.4637 70.784C52.1357 70.784 52.7384 70.72 53.2717 70.592C53.8157 70.464 54.2904 70.2613 54.6957 69.984C55.101 69.696 55.437 69.328 55.7037 68.88C55.981 68.432 56.1837 67.8827 56.3117 67.232C56.0344 67.36 55.7197 67.4667 55.3677 67.552C55.0157 67.6267 54.653 67.664 54.2797 67.664C53.6504 67.664 53.117 67.5733 52.6797 67.392C52.2424 67.2 51.885 66.9493 51.6077 66.64C51.3304 66.32 51.1277 65.9573 50.9997 65.552C50.8824 65.136 50.8237 64.704 50.8237 64.256C50.8237 63.8613 50.893 63.4507 51.0317 63.024C51.1704 62.5973 51.3784 62.208 51.6557 61.856C51.9437 61.504 52.3064 61.216 52.7437 60.992C53.181 60.768 53.6984 60.656 54.2957 60.656C54.9037 60.656 55.437 60.7627 55.8957 60.976C56.365 61.1893 56.7544 61.4987 57.0637 61.904C57.3837 62.3093 57.6237 62.8053 57.7837 63.392C57.9437 63.968 58.0237 64.6187 58.0237 65.344ZM54.4397 66.448C54.813 66.448 55.165 66.416 55.4957 66.352C55.8264 66.2773 56.1464 66.1707 56.4557 66.032C56.4664 65.9147 56.4717 65.8027 56.4717 65.696C56.4717 65.5787 56.4717 65.4613 56.4717 65.344C56.4717 64.8853 56.4397 64.448 56.3757 64.032C56.3117 63.6053 56.1944 63.2373 56.0237 62.928C55.8637 62.608 55.645 62.3573 55.3677 62.176C55.0904 61.984 54.7384 61.888 54.3117 61.888C53.9597 61.888 53.661 61.9627 53.4157 62.112C53.1704 62.2613 52.9677 62.4533 52.8077 62.688C52.6477 62.912 52.5304 63.1627 52.4557 63.44C52.3917 63.7067 52.3597 63.968 52.3597 64.224C52.3597 64.9493 52.5304 65.504 52.8717 65.888C53.2237 66.2613 53.7464 66.448 54.4397 66.448ZM64.2941 72V60.576H67.3021C68.6994 60.576 69.7341 60.8587 70.4061 61.424C71.0887 61.9893 71.4301 62.8107 71.4301 63.888C71.4301 64.6133 71.2647 65.2373 70.9341 65.76C70.6034 66.272 70.1127 66.6667 69.4621 66.944C68.8221 67.2213 68.0274 67.36 67.0781 67.36H65.7341V72H64.2941ZM62.9021 69.824V68.784H68.3741V69.824H62.9021ZM62.9021 67.36V66.144H66.5661V67.36H62.9021ZM66.8701 66.144C67.5207 66.144 68.0701 66.0747 68.5181 65.936C68.9767 65.7973 69.3287 65.568 69.5741 65.248C69.8194 64.928 69.9421 64.4907 69.9421 63.936C69.9421 63.2107 69.7181 62.672 69.2701 62.32C68.8221 61.968 68.1234 61.792 67.1741 61.792H65.7341V66.144H66.8701Z" fill="#F6F4F4"/>
<path style="mix-blend-mode:screen" d="M52.8333 25C73.2679 25 89.8333 19.4036 89.8333 12.5C89.8333 5.59644 73.2679 0 52.8333 0C32.3988 0 15.8333 5.59644 15.8333 12.5C15.8333 19.4036 32.3988 25 52.8333 25Z" fill="url(#paint0_radial_1_1615)"/>
<path d="M52.5238 21.1903C67.6865 21.1903 79.9783 17.4047 79.9783 12.735C79.9783 8.06523 67.6865 4.27966 52.5238 4.27966C37.361 4.27966 25.0692 8.06523 25.0692 12.735C25.0692 17.4047 37.361 21.1903 52.5238 21.1903Z" fill="url(#paint1_radial_1_1615)"/>
<path style="mix-blend-mode:screen" d="M77.3785 14.3987C80.4608 10.022 71.8447 5.67636 58.1338 4.69243C44.4229 3.70851 30.8093 6.4589 27.7269 10.8356C24.6446 15.2123 33.2607 19.558 46.9716 20.5419C60.6825 21.5258 74.2961 18.7754 77.3785 14.3987Z" fill="url(#paint2_radial_1_1615)"/>
<g style="mix-blend-mode:multiply" opacity="0.1">
<path d="M33.1609 13.3739C42.0308 12.7663 35.9141 15.9893 35.9141 15.9893L45.4666 14.8763C48.3238 14.5435 51.2578 14.2701 54.2461 14.0671C58.6674 13.766 65.0735 13.2385 63.7489 12.7787C61.7642 12.0896 62.7045 11.094 51.7189 11.7554C40.7333 12.4169 52.1258 9.64679 56.8682 9.64679C58.1656 9.64679 47.7768 10.4104 50.218 11.1506C52.6593 11.8894 62.6051 9.52665 66.3529 10.3994C66.3529 10.3994 61.1539 10.5264 61.9948 11.5069C62.8356 12.4873 69.3366 12.9499 74.4587 11.0608C79.5808 9.17176 61.615 9.64817 61.615 9.64817C61.615 9.64817 70.4849 7.2951 74.843 8.88729C76.6106 9.53356 77.8855 9.75312 78.7761 9.78764C77.6052 8.83896 75.8828 7.95518 73.6766 7.18325C70.8466 6.76345 67.257 6.7745 63.1069 7.95518C52.5914 10.9476 40.7378 9.66751 47.3925 8.0767C54.0426 6.48589 59.9333 6.93192 59.9333 6.93192C59.9333 6.93192 48.6945 7.73285 50.2994 8.46473C51.9043 9.19523 67.3474 7.62928 65.4396 6.2898C63.5273 4.95032 46.859 6.2898 46.859 6.2898C46.859 6.2898 53.7849 6.08542 51.0498 6.77726C48.3147 7.46772 35.9277 8.38878 37.6863 9.58741C39.4449 10.7847 49.9106 10.0721 49.9106 10.0721C49.9106 10.0721 39.6438 13.1446 51.0498 12.1863C62.4604 11.2293 63.9116 12.4666 61.1584 12.8864C58.4052 13.3062 32.9439 15.8374 40.2089 11.7582C40.2089 11.7582 27.433 14.2066 31.6781 11.1534C35.9277 8.09879 29.5036 9.87188 29.5036 9.87188C29.5036 9.87188 35.1772 5.92386 37.9123 7.11834C40.6474 8.31283 33.5542 8.64977 33.5542 8.64977C33.5542 8.64977 39.6709 8.87072 44.3364 6.48727C47.2478 5.00003 43.5724 4.97793 40.4033 5.17264C34.6302 6.04676 29.8155 7.534 27.1256 9.49213C25.9457 10.3483 25.2675 11.2293 25.037 12.1076C27.0035 11.6049 29.5849 10.8786 29.5849 10.8786C29.5849 10.8786 24.3091 13.9842 33.179 13.378L33.1609 13.3739Z" fill="#FF1E00"/>
</g>
<path style="mix-blend-mode:screen" d="M78.0324 13.2919C81.1124 8.91503 72.4936 4.56986 58.7818 3.5867C45.07 2.60354 31.4576 5.35469 28.3775 9.73157C25.2975 14.1084 33.9163 18.4536 47.6281 19.4368C61.3399 20.4199 74.9523 17.6688 78.0324 13.2919Z" fill="url(#paint3_radial_1_1615)"/>
<path style="mix-blend-mode:screen" opacity="0.38" d="M77.6953 13.5469C72.2345 15.5479 59.98 8.92504 43.1595 12.4671C26.339 16.0105 23.2673 10.0035 33.5893 7.13124C41.656 4.88726 49.2799 3.93995 62.4429 5.2891C75.606 6.63687 81.3297 12.2144 77.6953 13.5469Z" fill="url(#paint4_linear_1_1615)"/>
<path style="mix-blend-mode:screen" opacity="0.38" d="M27.2895 11.6011C32.934 9.64568 44.5922 16.3652 61.738 12.9613C78.8883 9.55731 81.4129 15.5864 70.8254 18.373C62.5502 20.5507 54.8381 21.4345 41.7953 19.9804C28.7525 18.5249 23.5326 12.9046 27.2895 11.6011Z" fill="url(#paint5_linear_1_1615)"/>
<g style="mix-blend-mode:multiply" opacity="0.1">
<path d="M71.9227 12.0803C63.0528 12.6879 69.1695 9.46488 69.1695 9.46488L59.617 10.5779C56.7598 10.9107 53.8258 11.1841 50.8375 11.3871C46.4162 11.6881 40.0101 12.2157 41.3347 12.6755C43.3194 13.3646 42.379 14.3602 53.3647 13.6987C64.3503 13.0373 52.9578 15.8074 48.2154 15.8074C46.918 15.8074 57.3068 15.0438 54.8656 14.3036C52.4243 13.5648 42.4785 15.9275 38.7307 15.0548C38.7307 15.0548 43.9297 14.9278 43.0888 13.9473C42.2479 12.9669 35.747 12.5043 30.6249 14.3933C25.5028 16.2824 43.4686 15.806 43.4686 15.806C43.4686 15.806 34.5987 18.1591 30.2406 16.5669C28.473 15.9206 27.1981 15.7011 26.3075 15.6665C27.4784 16.6152 29.2008 17.499 31.407 18.2709C34.237 18.6907 37.8266 18.6797 41.9767 17.499C52.4921 14.5066 64.3458 15.7867 57.6911 17.3775C51.041 18.9683 45.1503 18.5223 45.1503 18.5223C45.1503 18.5223 56.3891 17.7213 54.7842 16.9895C53.1793 16.259 37.7362 17.8249 39.6439 19.1644C41.5563 20.5039 58.2246 19.1644 58.2246 19.1644C58.2246 19.1644 51.2986 19.3688 54.0337 18.6769C56.7689 17.9865 69.1559 17.0654 67.3973 15.8668C65.6387 14.6695 55.173 15.3821 55.173 15.3821C55.173 15.3821 65.4398 12.3096 54.0337 13.2679C42.6232 14.2249 41.172 12.9876 43.9252 12.5678C46.6784 12.148 72.1397 9.61678 64.8747 13.696C64.8747 13.696 77.6506 11.2476 73.4055 14.3008C69.1604 17.354 75.58 15.5823 75.58 15.5823C75.58 15.5823 69.9064 19.5303 67.1713 18.3358C64.4362 17.1414 71.5294 16.8044 71.5294 16.8044C71.5294 16.8044 65.4127 16.5835 60.7472 18.9669C57.8358 20.4542 61.5112 20.4763 64.6803 20.2815C70.4534 19.4074 75.2681 17.9202 77.958 15.9621C79.1334 15.1059 79.816 14.2249 80.0466 13.3466C78.08 13.8493 75.4987 14.5756 75.4987 14.5756C75.4987 14.5756 80.7745 11.47 71.9046 12.0762L71.9227 12.0803Z" fill="#FF1E00"/>
</g>
<g opacity="0.71">
<path d="M34.686 17.2144C30.1723 17.6315 47.8705 18.9005 50.935 18.4504C54.0233 18.0002 38.4869 16.8637 34.686 17.2144Z" fill="#FF7900"/>
<path style="mix-blend-mode:screen" d="M50.3691 17.5222C54.5203 18.6449 54.4769 19.7372 50.2604 19.9637C46.0439 20.1888 39.2737 19.4624 35.1115 18.3397C30.9603 17.217 31.0037 16.1247 35.2202 15.8983C39.4367 15.6732 46.2069 16.3995 50.3691 17.5222Z" fill="url(#paint6_radial_1_1615)"/>
</g>
<g opacity="0.71">
<path d="M33.7609 14.9208C23.3394 15.0989 35.8295 17.4741 44.5726 17.1758C53.3157 16.8775 42.543 14.7703 33.7609 14.9208Z" fill="#FF7900"/>
<path style="mix-blend-mode:screen" d="M43.1981 19.3039C48.3177 19.0431 50.5125 17.4342 48.1002 15.7105C45.688 13.9867 39.5822 12.8008 34.4626 13.0617C29.343 13.3225 27.1483 14.9313 29.5605 16.655C31.9727 18.3788 38.0785 19.5647 43.1981 19.3039Z" fill="url(#paint7_radial_1_1615)"/>
</g>
<path d="M48.9808 17.0581C48.7102 16.5074 48.3695 15.9008 47.9588 15.2381C47.5482 14.5754 47.1188 13.9361 46.6708 13.3201C46.4842 13.5628 46.2788 13.8521 46.0548 14.1881C45.8402 14.5241 45.6208 14.8694 45.3968 15.2241C45.1822 15.5694 44.9815 15.9054 44.7948 16.2321C44.6082 16.5588 44.4588 16.8341 44.3468 17.0581H42.3448C42.7648 16.2648 43.2502 15.4528 43.8008 14.6221C44.3515 13.7821 44.9488 12.9048 45.5928 11.9901L42.4848 7.35611H44.5848L46.7268 10.6741L48.8408 7.35611H50.8568L47.7908 11.9761C48.5002 12.9374 49.1255 13.8474 49.6668 14.7061C50.2175 15.5648 50.6795 16.3488 51.0528 17.0581H48.9808ZM58.756 9.73611V17.0581H57.076C57.076 16.5261 57.076 15.9988 57.076 15.4761C57.0853 14.9534 57.09 14.4681 57.09 14.0201C57.0993 13.5721 57.104 13.1848 57.104 12.8581C57.1133 12.5221 57.118 12.2748 57.118 12.1161C56.838 12.4801 56.5487 12.8814 56.25 13.3201C55.9513 13.7588 55.6527 14.1974 55.354 14.6361C55.0647 15.0748 54.7893 15.5041 54.528 15.9241C54.2667 16.3441 54.038 16.7221 53.842 17.0581H52.344V9.73611H54.01C54.01 10.2774 54.0053 10.7954 53.996 11.2901C53.996 11.7754 53.996 12.2188 53.996 12.6201C53.996 13.0214 53.9913 13.3714 53.982 13.6701C53.982 13.9688 53.982 14.1974 53.982 14.3561C54.2433 13.9548 54.514 13.5441 54.794 13.1241C55.074 12.6948 55.354 12.2794 55.634 11.8781C55.9233 11.4674 56.208 11.0801 56.488 10.7161C56.768 10.3521 57.0387 10.0254 57.3 9.73611H58.756ZM66.4323 11.1501H64.0663V17.0581H62.3723V11.1501H60.0203V9.73611H66.4323V11.1501Z" fill="#422B2B"/>
<defs>
<radialGradient id="paint0_radial_1_1615" cx="0" cy="0" r="1" gradientUnits="userSpaceOnUse" gradientTransform="translate(52.8333 12.5) scale(37 12.5)">
<stop stop-color="#FF0000"/>
<stop offset="0.09" stop-color="#F50000"/>
<stop offset="0.23" stop-color="#DA0000"/>
<stop offset="0.42" stop-color="#AE0000"/>
<stop offset="0.64" stop-color="#710000"/>
<stop offset="0.89" stop-color="#250000"/>
<stop offset="1"/>
</radialGradient>
<radialGradient id="paint1_radial_1_1615" cx="0" cy="0" r="1" gradientUnits="userSpaceOnUse" gradientTransform="translate(52.5238 12.735) scale(27.4545 8.45531)">
<stop offset="0.58" stop-color="#FF7D00"/>
<stop offset="0.73" stop-color="#FF5700"/>
<stop offset="0.88" stop-color="#FF2900"/>
<stop offset="1" stop-color="#FF0000"/>
</radialGradient>
<radialGradient id="paint2_radial_1_1615" cx="0" cy="0" r="1" gradientUnits="userSpaceOnUse" gradientTransform="translate(52.5518 12.6178) scale(25.4454 8.12252)">
<stop stop-color="#FF00FF"/>
<stop offset="0.1" stop-color="#D000D0"/>
<stop offset="0.23" stop-color="#990099"/>
<stop offset="0.37" stop-color="#6A006A"/>
<stop offset="0.5" stop-color="#440044"/>
<stop offset="0.63" stop-color="#260026"/>
<stop offset="0.76" stop-color="#110011"/>
<stop offset="0.88" stop-color="#040004"/>
<stop offset="1"/>
</radialGradient>
<radialGradient id="paint3_radial_1_1615" cx="0" cy="0" r="1" gradientUnits="userSpaceOnUse" gradientTransform="translate(53.2019 11.513) scale(25.4461 8.12252)">
<stop stop-color="#FFFF00"/>
<stop offset="0.1" stop-color="#D0D000"/>
<stop offset="0.23" stop-color="#999900"/>
<stop offset="0.37" stop-color="#6A6A00"/>
<stop offset="0.5" stop-color="#444400"/>
<stop offset="0.63" stop-color="#262600"/>
<stop offset="0.76" stop-color="#111100"/>
<stop offset="0.88" stop-color="#040400"/>
<stop offset="1"/>
</radialGradient>
<linearGradient id="paint4_linear_1_1615" x1="71.6623" y1="7.0689" x2="62.3183" y2="27.7565" gradientUnits="userSpaceOnUse">
<stop stop-color="#FFFF00"/>
<stop offset="0.1" stop-color="#D0D000"/>
<stop offset="0.23" stop-color="#999900"/>
<stop offset="0.37" stop-color="#6A6A00"/>
<stop offset="0.5" stop-color="#444400"/>
<stop offset="0.63" stop-color="#262600"/>
<stop offset="0.76" stop-color="#111100"/>
<stop offset="0.88" stop-color="#040400"/>
<stop offset="1"/>
</linearGradient>
<linearGradient id="paint5_linear_1_1615" x1="38.9888" y1="19.6023" x2="41.7911" y2="5.7159" gradientUnits="userSpaceOnUse">
<stop stop-color="#FF00FF"/>
<stop offset="0.1" stop-color="#D000D0"/>
<stop offset="0.23" stop-color="#990099"/>
<stop offset="0.37" stop-color="#6A006A"/>
<stop offset="0.5" stop-color="#440044"/>
<stop offset="0.63" stop-color="#260026"/>
<stop offset="0.76" stop-color="#110011"/>
<stop offset="0.88" stop-color="#040004"/>
<stop offset="1"/>
</linearGradient>
<radialGradient id="paint6_radial_1_1615" cx="0" cy="0" r="1" gradientUnits="userSpaceOnUse" gradientTransform="translate(44.2042 17.8454) rotate(-3.06805) scale(7.59265 2.4364)">
<stop stop-color="#FFC700"/>
<stop offset="0.1" stop-color="#D0A200"/>
<stop offset="0.23" stop-color="#997800"/>
<stop offset="0.37" stop-color="#6A5300"/>
<stop offset="0.5" stop-color="#443500"/>
<stop offset="0.63" stop-color="#261D00"/>
<stop offset="0.76" stop-color="#110D00"/>
<stop offset="0.88" stop-color="#040300"/>
<stop offset="1"/>
</radialGradient>
<radialGradient id="paint7_radial_1_1615" cx="0" cy="0" r="1" gradientUnits="userSpaceOnUse" gradientTransform="translate(-35.8687 12.1558) rotate(3.01676) scale(10.211 3.03493)">
<stop stop-color="#FFC700"/>
<stop offset="0.1" stop-color="#D0A200"/>
<stop offset="0.23" stop-color="#997800"/>
<stop offset="0.37" stop-color="#6A5300"/>
<stop offset="0.5" stop-color="#443500"/>
<stop offset="0.63" stop-color="#261D00"/>
<stop offset="0.76" stop-color="#110D00"/>
<stop offset="0.88" stop-color="#040300"/>
<stop offset="1"/>
</radialGradient>
<clipPath id="clip0_1_1615">
<rect width="30" height="12" fill="white" transform="translate(43.9999 32)"/>
</clipPath>
</defs>
</svg>
