<svg width="105" height="91" viewBox="0 0 105 91" fill="none" xmlns="http://www.w3.org/2000/svg">
<rect x="1.33313" y="13.5" width="102" height="77" rx="7.5" fill="#212020"/>
<rect x="1.33313" y="13.5" width="102" height="77" rx="7.5" stroke="#393737"/>
<path d="M32.9411 44C33.0051 43.1467 33.1545 42.2507 33.3891 41.312C33.6345 40.3627 33.9331 39.4453 34.2851 38.56C34.6371 37.664 35.0211 36.8373 35.4371 36.08C35.8638 35.312 36.2798 34.688 36.6851 34.208H31.2931V32.912H38.3491V34.144C37.9971 34.5493 37.6078 35.1093 37.1811 35.824C36.7545 36.528 36.3491 37.3227 35.9651 38.208C35.5918 39.0827 35.2665 40.0213 34.9891 41.024C34.7225 42.016 34.5571 43.008 34.4931 44H32.9411Z" fill="#F6F4F4"/>
<g clip-path="url(#clip0_1_1675)">
<path d="M73.6716 34.9197C73.3376 33.68 72.2775 32.7924 71.0276 32.6908C64.4772 32.1604 57.9929 32.2715 52.6558 33.0929C49.5364 33.5747 46.8104 34.2974 44.6891 35.277C47.3755 44.5508 61.0516 46.8634 62.9645 38.3502C62.9764 38.2961 62.9909 38.242 63.0081 38.1891C63.0556 38.043 63.1217 37.9036 63.2142 37.7817C63.3859 37.5598 63.605 37.4122 63.8439 37.3366H63.8453C64.5344 37.116 65.3649 37.4937 65.5244 38.4177C66.071 41.9768 68.2833 43.7143 71.5163 43.5668C72.1103 43.5398 72.6436 43.188 72.9115 42.6439C72.9986 42.4653 73.0818 42.2773 73.1596 42.0824C73.99 39.9903 74.2355 37.0078 73.6719 34.9197H73.6716ZM60.0324 35.1755C60.4363 35.2322 60.74 35.5801 60.7624 35.9968C61.0028 40.5058 56.2557 42.4464 52.8116 40.1648C52.1753 39.7439 51.6948 39.1119 51.4294 38.3854C51.3477 38.1622 51.2802 37.9403 51.2274 37.7183C51.0242 36.8589 51.4822 35.9767 52.294 35.679C54.1896 34.9863 56.9618 34.7425 60.0324 35.1757V35.1755ZM67.3034 36.101C67.3483 35.6869 67.6505 35.3512 68.0479 35.2619C69.587 34.9168 71.0444 34.902 72.1493 35.6273C72.6931 35.9846 73.0033 36.618 73.0033 37.2796C72.9993 39.9833 72.0239 41.6708 70.0979 41.0985C69.5422 40.9335 69.0551 40.5923 68.6564 40.1634C67.5422 38.9618 67.1514 37.4582 67.3032 36.101H67.3034Z" fill="#F2C94C"/>
<g opacity="0.6">
<path d="M50.7156 38.4419C50.7684 38.6639 50.8357 38.8859 50.9176 39.1091C51.183 39.8358 51.6635 40.4677 52.2998 40.8885C54.9142 42.6202 58.277 41.9177 59.6416 39.5075C58.0667 41.3173 55.1419 41.7086 52.8116 40.1648C52.1753 39.7439 51.6948 39.1119 51.4294 38.3854C51.3477 38.1622 51.2802 37.9403 51.2274 37.7183C51.1435 37.3636 51.1737 37.0059 51.2935 36.686C50.7992 37.0966 50.5579 37.7755 50.7156 38.4419Z" fill="white"/>
<path d="M62.7021 38.5056C62.6096 38.6275 62.5438 38.7669 62.4961 38.9129C62.4788 38.9656 62.4643 39.0197 62.4524 39.0739C62.2728 39.8734 61.9892 40.5774 61.6208 41.1892C62.2417 40.4292 62.7087 39.4872 62.9642 38.3502C62.9736 38.3078 62.9857 38.2659 62.9983 38.224C62.8897 38.299 62.7895 38.3921 62.7019 38.5054L62.7021 38.5056Z" fill="white"/>
<path d="M73.6716 34.9197C73.3376 33.68 72.2775 32.7924 71.0276 32.6908C64.4772 32.1604 57.9929 32.2715 52.6558 33.0929C49.5364 33.5747 46.8104 34.2974 44.6891 35.277C44.7321 35.4257 44.7784 35.5727 44.827 35.7178C46.8443 34.8809 49.3337 34.2507 52.144 33.8165C57.4811 32.9952 63.9654 32.8841 70.5156 33.4147C71.7657 33.5163 72.8258 34.4039 73.1596 35.6436C73.7232 37.7317 73.4777 40.7141 72.6473 42.8063C72.595 42.9373 72.5396 43.0635 72.4829 43.1875C72.6581 43.041 72.8055 42.8583 72.9108 42.6442C72.9979 42.4655 73.0811 42.2776 73.1589 42.0827C73.9893 39.9905 74.2348 37.008 73.6712 34.92L73.6716 34.9197Z" fill="white"/>
<path d="M67.309 36.0715C67.0283 36.2169 66.8274 36.4946 66.7916 36.8249C66.6398 38.1821 67.0306 39.6857 68.1448 40.8873C68.5436 41.3161 69.0306 41.6574 69.5863 41.8224C70.7181 42.1588 71.5212 41.7141 71.9923 40.7419C71.523 41.1861 70.8914 41.3343 70.0981 41.0987C69.5424 40.9337 69.0554 40.5925 68.6566 40.1636C67.5424 38.962 67.1516 37.4585 67.3034 36.1012C67.3046 36.0912 67.3076 36.0816 67.309 36.0715Z" fill="white"/>
</g>
<path d="M55.8971 44C51.4506 44 45.986 41.0348 44.3485 35.3807C44.2978 35.2056 44.3812 35.0191 44.5433 34.9442C50.0379 32.4069 59.949 31.4287 71.0558 32.3271C72.4536 32.4401 73.6431 33.4427 74.0149 34.822C74.6487 37.1718 74.3109 40.605 73.2289 42.8077C72.9044 43.4679 72.2546 43.8985 71.5323 43.9313C68.0478 44.0903 65.7301 42.1006 65.1732 38.474C65.1018 38.0614 64.8467 37.7657 64.4746 37.6699C64.1095 37.5763 63.7245 37.7085 63.4937 38.008C63.4122 38.1139 63.351 38.2568 63.3115 38.4324C62.5551 41.7977 59.9004 43.8772 56.2101 43.9947C56.1066 43.9981 56.0017 43.9998 55.8971 43.9998V44ZM45.1243 35.4796C46.808 40.7151 52.0346 43.398 56.1879 43.2658C59.5848 43.1576 61.9287 41.3363 62.6177 38.2688C62.6811 37.9874 62.7878 37.7477 62.9347 37.5564C63.3386 37.0315 64.0107 36.7983 64.6479 36.9623C65.2945 37.1287 65.753 37.6488 65.875 38.3536C66.3772 41.6248 68.3739 43.3437 71.5006 43.2021C71.9656 43.1811 72.3842 42.904 72.5928 42.4794C73.5877 40.4539 73.911 37.1757 73.3284 35.0165C73.036 33.932 72.1 33.1434 70.9993 33.0546C60.2001 32.181 50.5707 33.0872 45.1243 35.4796Z" fill="#212020"/>
<path d="M70.804 41.512C70.5531 41.512 70.2892 41.4716 70.0152 41.3901C69.4464 41.2211 68.9023 40.8693 68.4417 40.3727C67.3564 39.2029 66.8341 37.6333 67.0084 36.0665C67.0686 35.5256 67.4608 35.0833 67.9843 34.9657C69.8432 34.5483 71.2583 34.6812 72.31 35.3721C72.9306 35.7799 73.3006 36.4934 73.2997 37.2808C73.2976 39.1459 72.8582 40.4689 72.029 41.1066C71.6788 41.376 71.2637 41.512 70.804 41.512ZM68.1112 35.5596C67.8355 35.6216 67.6293 35.8529 67.5977 36.1352C67.4433 37.5226 67.9075 38.9144 68.8715 39.9534C69.26 40.372 69.7127 40.6667 70.1805 40.8059C70.7795 40.984 71.2812 40.9213 71.6732 40.62C72.3378 40.1088 72.705 38.9225 72.7068 37.2798C72.7075 36.7097 72.4328 36.1747 71.9902 35.8838C71.0778 35.2844 69.8091 35.1781 68.1114 35.5593L68.1112 35.5596Z" fill="#212020"/>
<path d="M55.9513 41.427C54.8167 41.427 53.6598 41.0889 52.6499 40.4201C51.9746 39.9728 51.4423 39.2879 51.1512 38.492C51.066 38.2587 50.9949 38.0229 50.9396 37.7906C50.698 36.7741 51.2376 35.7437 52.1947 35.3934C54.2384 34.6455 57.1097 34.4561 60.0733 34.8742C60.614 34.9506 61.0284 35.4156 61.0583 35.9803C61.1669 38.0133 60.3034 39.7304 58.6888 40.6912C57.8616 41.1835 56.9144 41.4273 55.9513 41.4273V41.427ZM52.3942 35.9659C51.7242 36.2111 51.3467 36.9336 51.5161 37.6464C51.5656 37.8552 51.6298 38.0679 51.7067 38.2784C51.9534 38.9532 52.4026 39.5324 52.9718 39.9091C54.6535 41.0228 56.7808 41.1234 58.3909 40.1648C59.8058 39.3229 60.5619 37.8097 60.4662 36.0131C60.4514 35.7387 60.2522 35.5129 59.9922 35.4762C57.1209 35.0711 54.3512 35.2495 52.3942 35.9657V35.9659Z" fill="#212020"/>
<g opacity="0.3">
<path d="M63.0079 38.1893C62.9909 38.242 62.9761 38.2961 62.9642 38.3505C61.0516 46.8635 47.3755 44.5508 44.6891 35.277C46.8106 34.2974 49.5364 33.5747 52.6558 33.0929C52.4909 33.2418 52.3257 33.3905 52.1608 33.538L52.364 33.5677C51.4993 34.0347 50.5701 34.5732 50.2031 35.5016C49.8796 36.3177 50.0737 37.2487 50.3524 38.0837C50.7168 39.1797 51.25 40.2664 52.1438 40.9742C53.4479 42.0067 55.2407 42.0379 56.8843 41.9174C57.6923 41.8566 58.5094 41.7685 59.2669 41.4723C60.946 40.8174 62.1116 39.2367 62.9446 37.6048C62.9684 37.7983 62.9909 37.9932 63.0079 38.1893Z" fill="#212020"/>
</g>
<g opacity="0.3">
<path d="M73.1593 42.0824C73.0815 42.2773 72.9984 42.4653 72.9113 42.6439C72.6433 43.188 72.11 43.5398 71.516 43.5668C68.2831 43.7143 66.0707 41.9768 65.5241 38.4177C65.3644 37.4934 64.5342 37.116 63.8451 37.3366H63.8437C63.7208 37.3392 63.5996 37.3651 63.4807 37.4218C63.5269 37.2947 63.5732 37.1675 63.6192 37.0389L63.2826 37.4503C63.5374 36.7264 64.497 36.4774 65.1836 36.7899C65.8701 37.1038 66.3083 37.8062 66.5933 38.5193C66.8785 39.2312 67.0514 39.9929 67.4169 40.6655C68.1682 42.0527 69.7547 42.9133 71.2953 42.7725C71.9619 42.7117 72.6034 42.4641 73.1591 42.0824H73.1593Z" fill="#212020"/>
</g>
</g>
<path d="M35.8944 70.912C36.8438 70.912 37.5211 70.7253 37.9264 70.352C38.3424 69.9787 38.5504 69.4773 38.5504 68.848C38.5504 68.4427 38.4651 68.1013 38.2944 67.824C38.1238 67.5467 37.8998 67.328 37.6224 67.168C37.3451 66.9973 37.0198 66.88 36.6464 66.816C36.2838 66.7413 35.9104 66.704 35.5264 66.704H35.1424V65.488H35.6704C35.9371 65.488 36.2091 65.4613 36.4864 65.408C36.7744 65.3547 37.0358 65.2587 37.2704 65.12C37.5051 64.9813 37.6971 64.7947 37.8464 64.56C37.9958 64.3147 38.0704 64.0107 38.0704 63.648C38.0704 63.3493 38.0171 63.0933 37.9104 62.88C37.8038 62.6667 37.6598 62.4907 37.4784 62.352C37.3078 62.2133 37.1051 62.1173 36.8704 62.064C36.6464 62 36.4064 61.968 36.1504 61.968C35.6384 61.968 35.2011 62.0427 34.8384 62.192C34.4864 62.3413 34.1878 62.496 33.9424 62.656L33.3664 61.52C33.4944 61.4347 33.6544 61.344 33.8464 61.248C34.0491 61.1413 34.2731 61.0453 34.5184 60.96C34.7638 60.8747 35.0251 60.8053 35.3024 60.752C35.5904 60.688 35.8891 60.656 36.1984 60.656C36.7851 60.656 37.2918 60.7307 37.7184 60.88C38.1451 61.0187 38.4971 61.2213 38.7744 61.488C39.0518 61.744 39.2598 62.0533 39.3984 62.416C39.5371 62.768 39.6064 63.152 39.6064 63.568C39.6064 64.144 39.4411 64.64 39.1104 65.056C38.7798 65.4613 38.3798 65.7707 37.9104 65.984C38.1984 66.0693 38.4758 66.192 38.7424 66.352C39.0091 66.512 39.2384 66.7147 39.4304 66.96C39.6331 67.2053 39.7931 67.488 39.9104 67.808C40.0384 68.128 40.1024 68.4853 40.1024 68.88C40.1024 69.36 40.0171 69.808 39.8464 70.224C39.6864 70.6293 39.4304 70.9813 39.0784 71.28C38.7371 71.5787 38.3051 71.8133 37.7824 71.984C37.2598 72.1547 36.6411 72.24 35.9264 72.24C35.6491 72.24 35.3611 72.2187 35.0624 72.176C34.7744 72.1333 34.5024 72.08 34.2464 72.016C33.9904 71.952 33.7664 71.888 33.5744 71.824C33.3824 71.76 33.2438 71.7067 33.1584 71.664L33.4464 70.368C33.6278 70.4533 33.9264 70.5653 34.3424 70.704C34.7691 70.8427 35.2864 70.912 35.8944 70.912ZM49.3257 65.344C49.3257 67.5413 48.7764 69.2053 47.6777 70.336C46.5897 71.456 44.9684 72.0213 42.8137 72.032L42.7657 70.784C43.4377 70.784 44.0404 70.72 44.5737 70.592C45.1177 70.464 45.5924 70.2613 45.9977 69.984C46.403 69.696 46.739 69.328 47.0057 68.88C47.283 68.432 47.4857 67.8827 47.6137 67.232C47.3364 67.36 47.0217 67.4667 46.6697 67.552C46.3177 67.6267 45.955 67.664 45.5817 67.664C44.9524 67.664 44.419 67.5733 43.9817 67.392C43.5444 67.2 43.187 66.9493 42.9097 66.64C42.6324 66.32 42.4297 65.9573 42.3017 65.552C42.1844 65.136 42.1257 64.704 42.1257 64.256C42.1257 63.8613 42.195 63.4507 42.3337 63.024C42.4724 62.5973 42.6804 62.208 42.9577 61.856C43.2457 61.504 43.6084 61.216 44.0457 60.992C44.483 60.768 45.0004 60.656 45.5977 60.656C46.2057 60.656 46.739 60.7627 47.1977 60.976C47.667 61.1893 48.0564 61.4987 48.3657 61.904C48.6857 62.3093 48.9257 62.8053 49.0857 63.392C49.2457 63.968 49.3257 64.6187 49.3257 65.344ZM45.7417 66.448C46.115 66.448 46.467 66.416 46.7977 66.352C47.1284 66.2773 47.4484 66.1707 47.7577 66.032C47.7684 65.9147 47.7737 65.8027 47.7737 65.696C47.7737 65.5787 47.7737 65.4613 47.7737 65.344C47.7737 64.8853 47.7417 64.448 47.6777 64.032C47.6137 63.6053 47.4964 63.2373 47.3257 62.928C47.1657 62.608 46.947 62.3573 46.6697 62.176C46.3924 61.984 46.0404 61.888 45.6137 61.888C45.2617 61.888 44.963 61.9627 44.7177 62.112C44.4724 62.2613 44.2697 62.4533 44.1097 62.688C43.9497 62.912 43.8324 63.1627 43.7577 63.44C43.6937 63.7067 43.6617 63.968 43.6617 64.224C43.6617 64.9493 43.8324 65.504 44.1737 65.888C44.5257 66.2613 45.0484 66.448 45.7417 66.448ZM58.3569 65.344C58.3569 67.5413 57.8076 69.2053 56.7089 70.336C55.6209 71.456 53.9996 72.0213 51.8449 72.032L51.7969 70.784C52.4689 70.784 53.0716 70.72 53.6049 70.592C54.1489 70.464 54.6236 70.2613 55.0289 69.984C55.4343 69.696 55.7703 69.328 56.0369 68.88C56.3143 68.432 56.5169 67.8827 56.6449 67.232C56.3676 67.36 56.0529 67.4667 55.7009 67.552C55.3489 67.6267 54.9863 67.664 54.6129 67.664C53.9836 67.664 53.4503 67.5733 53.0129 67.392C52.5756 67.2 52.2183 66.9493 51.9409 66.64C51.6636 66.32 51.4609 65.9573 51.3329 65.552C51.2156 65.136 51.1569 64.704 51.1569 64.256C51.1569 63.8613 51.2263 63.4507 51.3649 63.024C51.5036 62.5973 51.7116 62.208 51.9889 61.856C52.2769 61.504 52.6396 61.216 53.0769 60.992C53.5143 60.768 54.0316 60.656 54.6289 60.656C55.2369 60.656 55.7703 60.7627 56.2289 60.976C56.6983 61.1893 57.0876 61.4987 57.3969 61.904C57.7169 62.3093 57.9569 62.8053 58.1169 63.392C58.2769 63.968 58.3569 64.6187 58.3569 65.344ZM54.7729 66.448C55.1463 66.448 55.4983 66.416 55.8289 66.352C56.1596 66.2773 56.4796 66.1707 56.7889 66.032C56.7996 65.9147 56.8049 65.8027 56.8049 65.696C56.8049 65.5787 56.8049 65.4613 56.8049 65.344C56.8049 64.8853 56.7729 64.448 56.7089 64.032C56.6449 63.6053 56.5276 63.2373 56.3569 62.928C56.1969 62.608 55.9783 62.3573 55.7009 62.176C55.4236 61.984 55.0716 61.888 54.6449 61.888C54.2929 61.888 53.9943 61.9627 53.7489 62.112C53.5036 62.2613 53.3009 62.4533 53.1409 62.688C52.9809 62.912 52.8636 63.1627 52.7889 63.44C52.7249 63.7067 52.6929 63.968 52.6929 64.224C52.6929 64.9493 52.8636 65.504 53.2049 65.888C53.5569 66.2613 54.0796 66.448 54.7729 66.448ZM64.6273 72V60.576H67.6353C69.0327 60.576 70.0673 60.8587 70.7393 61.424C71.422 61.9893 71.7633 62.8107 71.7633 63.888C71.7633 64.6133 71.598 65.2373 71.2673 65.76C70.9367 66.272 70.446 66.6667 69.7953 66.944C69.1553 67.2213 68.3607 67.36 67.4113 67.36H66.0673V72H64.6273ZM63.2353 69.824V68.784H68.7073V69.824H63.2353ZM63.2353 67.36V66.144H66.8993V67.36H63.2353ZM67.2033 66.144C67.854 66.144 68.4033 66.0747 68.8513 65.936C69.31 65.7973 69.662 65.568 69.9073 65.248C70.1527 64.928 70.2753 64.4907 70.2753 63.936C70.2753 63.2107 70.0513 62.672 69.6033 62.32C69.1553 61.968 68.4567 61.792 67.5073 61.792H66.0673V66.144H67.2033Z" fill="#F6F4F4"/>
<path style="mix-blend-mode:screen" d="M53.1666 25C73.6012 25 90.1666 19.4036 90.1666 12.5C90.1666 5.59644 73.6012 0 53.1666 0C32.7321 0 16.1666 5.59644 16.1666 12.5C16.1666 19.4036 32.7321 25 53.1666 25Z" fill="url(#paint0_radial_1_1675)"/>
<path d="M52.857 21.1903C68.0197 21.1903 80.3115 17.4047 80.3115 12.735C80.3115 8.06523 68.0197 4.27966 52.857 4.27966C37.6943 4.27966 25.4025 8.06523 25.4025 12.735C25.4025 17.4047 37.6943 21.1903 52.857 21.1903Z" fill="url(#paint1_radial_1_1675)"/>
<path style="mix-blend-mode:screen" d="M77.7117 14.3987C80.794 10.022 72.1779 5.67636 58.467 4.69243C44.7561 3.70851 31.1425 6.4589 28.0602 10.8356C24.9779 15.2123 33.594 19.558 47.3049 20.5419C61.0158 21.5258 74.6294 18.7754 77.7117 14.3987Z" fill="url(#paint2_radial_1_1675)"/>
<g style="mix-blend-mode:multiply" opacity="0.1">
<path d="M33.4942 13.3739C42.364 12.7663 36.2474 15.9893 36.2474 15.9893L45.7999 14.8763C48.657 14.5435 51.5911 14.2701 54.5793 14.0671C59.0007 13.766 65.4067 13.2385 64.0821 12.7787C62.0975 12.0896 63.0378 11.094 52.0522 11.7554C41.0666 12.4169 52.4591 9.64679 57.2014 9.64679C58.4989 9.64679 48.11 10.4104 50.5513 11.1506C52.9925 11.8894 62.9383 9.52665 66.6861 10.3994C66.6861 10.3994 61.4872 10.5264 62.328 11.5069C63.1689 12.4873 69.6699 12.9499 74.792 11.0608C79.9141 9.17176 61.9483 9.64817 61.9483 9.64817C61.9483 9.64817 70.8181 7.2951 75.1762 8.88729C76.9439 9.53356 78.2187 9.75312 79.1093 9.78764C77.9384 8.83896 76.216 7.95518 74.0098 7.18325C71.1798 6.76345 67.5903 6.7745 63.4402 7.95518C52.9247 10.9476 41.0711 9.66751 47.7257 8.0767C54.3759 6.48589 60.2665 6.93192 60.2665 6.93192C60.2665 6.93192 49.0277 7.73285 50.6326 8.46473C52.2375 9.19523 67.6807 7.62928 65.7729 6.2898C63.8606 4.95032 47.1923 6.2898 47.1923 6.2898C47.1923 6.2898 54.1182 6.08542 51.3831 6.77726C48.648 7.46772 36.2609 8.38878 38.0195 9.58741C39.7781 10.7847 50.2438 10.0721 50.2438 10.0721C50.2438 10.0721 39.977 13.1446 51.3831 12.1863C62.7937 11.2293 64.2449 12.4666 61.4917 12.8864C58.7385 13.3062 33.2772 15.8374 40.5421 11.7582C40.5421 11.7582 27.7663 14.2066 32.0113 11.1534C36.2609 8.09879 29.8368 9.87188 29.8368 9.87188C29.8368 9.87188 35.5105 5.92386 38.2456 7.11834C40.9807 8.31283 33.8875 8.64977 33.8875 8.64977C33.8875 8.64977 40.0042 8.87072 44.6697 6.48727C47.5811 5.00003 43.9056 4.97793 40.7365 5.17264C34.9634 6.04676 30.1488 7.534 27.4589 9.49213C26.2789 10.3483 25.6008 11.2293 25.3702 12.1076C27.3368 11.6049 29.9182 10.8786 29.9182 10.8786C29.9182 10.8786 24.6424 13.9842 33.5123 13.378L33.4942 13.3739Z" fill="#FF1E00"/>
</g>
<path style="mix-blend-mode:screen" d="M78.3656 13.2919C81.4456 8.91503 72.8269 4.56986 59.1151 3.5867C45.4033 2.60354 31.7908 5.35469 28.7108 9.73157C25.6308 14.1084 34.2495 18.4536 47.9613 19.4368C61.6731 20.4199 75.2856 17.6688 78.3656 13.2919Z" fill="url(#paint3_radial_1_1675)"/>
<path style="mix-blend-mode:screen" opacity="0.38" d="M78.0285 13.5469C72.5678 15.5479 60.3133 8.92504 43.4928 12.4671C26.6723 16.0105 23.6006 10.0035 33.9226 7.13124C41.9892 4.88726 49.6131 3.93995 62.7762 5.2891C75.9392 6.63687 81.6629 12.2144 78.0285 13.5469Z" fill="url(#paint4_linear_1_1675)"/>
<path style="mix-blend-mode:screen" opacity="0.38" d="M27.6227 11.6011C33.2672 9.64568 44.9254 16.3652 62.0712 12.9613C79.2216 9.55731 81.7462 15.5864 71.1587 18.373C62.8835 20.5507 55.1714 21.4345 42.1286 19.9804C29.0858 18.5249 23.8659 12.9046 27.6227 11.6011Z" fill="url(#paint5_linear_1_1675)"/>
<g style="mix-blend-mode:multiply" opacity="0.1">
<path d="M72.2559 12.0803C63.3861 12.6879 69.5027 9.46488 69.5027 9.46488L59.9502 10.5779C57.0931 10.9107 54.159 11.1841 51.1708 11.3871C46.7494 11.6881 40.3434 12.2157 41.668 12.6755C43.6526 13.3646 42.7123 14.3602 53.6979 13.6987C64.6835 13.0373 53.291 15.8074 48.5487 15.8074C47.2512 15.8074 57.6401 15.0438 55.1988 14.3036C52.7576 13.5648 42.8118 15.9275 39.064 15.0548C39.064 15.0548 44.2629 14.9278 43.4221 13.9473C42.5812 12.9669 36.0802 12.5043 30.9581 14.3933C25.836 16.2824 43.8018 15.806 43.8018 15.806C43.8018 15.806 34.9319 18.1591 30.5739 16.5669C28.8062 15.9206 27.5314 15.7011 26.6407 15.6665C27.8116 16.6152 29.5341 17.499 31.7402 18.2709C34.5703 18.6907 38.1598 18.6797 42.3099 17.499C52.8254 14.5066 64.679 15.7867 58.0244 17.3775C51.3742 18.9683 45.4836 18.5223 45.4836 18.5223C45.4836 18.5223 56.7224 17.7213 55.1175 16.9895C53.5126 16.259 38.0694 17.8249 39.9772 19.1644C41.8895 20.5039 58.5578 19.1644 58.5578 19.1644C58.5578 19.1644 51.6319 19.3688 54.367 18.6769C57.1021 17.9865 69.4892 17.0654 67.7306 15.8668C65.972 14.6695 55.5062 15.3821 55.5062 15.3821C55.5062 15.3821 65.7731 12.3096 54.367 13.2679C42.9564 14.2249 41.5052 12.9876 44.2584 12.5678C47.0116 12.148 72.4729 9.61678 65.208 13.696C65.208 13.696 77.9838 11.2476 73.7388 14.3008C69.4937 17.354 75.9133 15.5823 75.9133 15.5823C75.9133 15.5823 70.2396 19.5303 67.5045 18.3358C64.7694 17.1414 71.8626 16.8044 71.8626 16.8044C71.8626 16.8044 65.7459 16.5835 61.0804 18.9669C58.169 20.4542 61.8445 20.4763 65.0136 20.2815C70.7867 19.4074 75.6013 17.9202 78.2912 15.9621C79.4666 15.1059 80.1493 14.2249 80.3799 13.3466C78.4133 13.8493 75.8319 14.5756 75.8319 14.5756C75.8319 14.5756 81.1077 11.47 72.2378 12.0762L72.2559 12.0803Z" fill="#FF1E00"/>
</g>
<g opacity="0.71">
<path d="M35.0192 17.2144C30.5056 17.6315 48.2038 18.9005 51.2683 18.4504C54.3566 18.0002 38.8202 16.8637 35.0192 17.2144Z" fill="#FF7900"/>
<path style="mix-blend-mode:screen" d="M50.7023 17.5222C54.8536 18.6449 54.8101 19.7372 50.5936 19.9637C46.3772 20.1888 39.6069 19.4624 35.4448 18.3397C31.2935 17.217 31.337 16.1247 35.5535 15.8983C39.7699 15.6732 46.5402 16.3995 50.7023 17.5222Z" fill="url(#paint6_radial_1_1675)"/>
</g>
<g opacity="0.71">
<path d="M34.0941 14.9208C23.6727 15.0989 36.1628 17.4741 44.9059 17.1758C53.6489 16.8775 42.8762 14.7703 34.0941 14.9208Z" fill="#FF7900"/>
<path style="mix-blend-mode:screen" d="M43.5314 19.3039C48.651 19.0431 50.8457 17.4342 48.4335 15.7105C46.0213 13.9867 39.9155 12.8008 34.7959 13.0617C29.6763 13.3225 27.4815 14.9313 29.8937 16.655C32.306 18.3788 38.4118 19.5647 43.5314 19.3039Z" fill="url(#paint7_radial_1_1675)"/>
</g>
<path d="M38.5501 12.2841H42.3161V13.8381H38.5501V12.2841ZM47.3622 9.44211C47.1382 9.71277 46.9048 10.0021 46.6622 10.3101C46.4288 10.6181 46.2002 10.9401 45.9762 11.2761C45.7522 11.6121 45.5375 11.9574 45.3322 12.3121C45.1268 12.6574 44.9402 13.0028 44.7722 13.3481H47.3622V9.44211ZM49.0142 7.35611V13.3481H50.1062V14.7341H49.0142V17.0581H47.3622V14.7341H43.1062V13.5301C43.2928 13.1194 43.5402 12.6481 43.8482 12.1161C44.1655 11.5841 44.5155 11.0381 44.8982 10.4781C45.2808 9.91811 45.6868 9.36744 46.1162 8.82611C46.5455 8.28477 46.9748 7.79477 47.4042 7.35611H49.0142ZM57.3352 9.87611C57.3352 10.2121 57.2652 10.5434 57.1252 10.8701C56.9852 11.1874 56.8032 11.5001 56.5792 11.8081C56.3645 12.1068 56.1172 12.4008 55.8372 12.6901C55.5572 12.9701 55.2772 13.2454 54.9972 13.5161C54.8479 13.6561 54.6799 13.8241 54.4932 14.0201C54.3065 14.2161 54.1292 14.4121 53.9612 14.6081C53.7932 14.8041 53.6485 14.9954 53.5272 15.1821C53.4059 15.3594 53.3405 15.5088 53.3312 15.6301H57.6432V17.0581H51.4692C51.4599 16.9834 51.4552 16.8948 51.4552 16.7921C51.4552 16.6801 51.4552 16.5961 51.4552 16.5401C51.4552 16.0921 51.5252 15.6814 51.6652 15.3081C51.8145 14.9254 52.0059 14.5708 52.2392 14.2441C52.4725 13.9174 52.7339 13.6094 53.0232 13.3201C53.3125 13.0308 53.6019 12.7461 53.8912 12.4661C54.1152 12.2514 54.3299 12.0414 54.5352 11.8361C54.7405 11.6308 54.9179 11.4301 55.0672 11.2341C55.2259 11.0288 55.3519 10.8234 55.4452 10.6181C55.5385 10.4034 55.5852 10.1841 55.5852 9.96011C55.5852 9.47477 55.4452 9.12944 55.1652 8.92411C54.8852 8.71877 54.5445 8.6161 54.1432 8.6161C53.8819 8.6161 53.6392 8.65344 53.4152 8.72811C53.1912 8.80277 52.9905 8.89144 52.8132 8.9941C52.6452 9.09677 52.4959 9.20411 52.3652 9.31611C52.2345 9.41877 52.1365 9.50277 52.0712 9.56811L51.2312 8.37811C51.6232 8.00477 52.0805 7.70611 52.6032 7.48211C53.1352 7.24877 53.7045 7.1321 54.3112 7.1321C55.3472 7.1321 56.1079 7.37944 56.5932 7.87411C57.0879 8.35944 57.3352 9.02677 57.3352 9.87611ZM63.9202 9.7921C63.9202 10.6414 63.7009 11.2948 63.2622 11.7521C62.8329 12.2094 62.2682 12.4381 61.5682 12.4381C61.2229 12.4381 60.9056 12.3821 60.6162 12.2701C60.3269 12.1488 60.0796 11.9761 59.8742 11.7521C59.6689 11.5281 59.5056 11.2528 59.3842 10.9261C59.2722 10.5901 59.2162 10.2121 59.2162 9.7921C59.2162 8.93344 59.4309 8.28011 59.8602 7.8321C60.2989 7.37477 60.8682 7.14611 61.5682 7.14611C62.2682 7.14611 62.8329 7.37477 63.2622 7.8321C63.7009 8.28011 63.9202 8.93344 63.9202 9.7921ZM62.5902 9.7921C62.5902 9.29744 62.4969 8.92877 62.3102 8.6861C62.1329 8.43411 61.8856 8.30811 61.5682 8.30811C61.2509 8.30811 61.0036 8.43411 60.8262 8.6861C60.6489 8.92877 60.5602 9.29744 60.5602 9.7921C60.5602 10.2868 60.6489 10.6601 60.8262 10.9121C61.0036 11.1548 61.2509 11.2761 61.5682 11.2761C61.8856 11.2761 62.1329 11.1548 62.3102 10.9121C62.4969 10.6601 62.5902 10.2868 62.5902 9.7921ZM66.7622 7.35611H68.3722L62.8982 17.0581H61.2882L66.7622 7.35611ZM70.4582 14.6361C70.4582 15.4854 70.2389 16.1388 69.8002 16.5961C69.3709 17.0534 68.8062 17.2821 68.1062 17.2821C67.7609 17.2821 67.4436 17.2214 67.1542 17.1001C66.8649 16.9881 66.6176 16.8201 66.4122 16.5961C66.2069 16.3721 66.0436 16.0968 65.9222 15.7701C65.8102 15.4341 65.7542 15.0561 65.7542 14.6361C65.7542 13.7774 65.9689 13.1241 66.3982 12.6761C66.8369 12.2188 67.4062 11.9901 68.1062 11.9901C68.8062 11.9901 69.3709 12.2188 69.8002 12.6761C70.2389 13.1241 70.4582 13.7774 70.4582 14.6361ZM69.1282 14.6361C69.1282 14.1414 69.0349 13.7728 68.8482 13.5301C68.6709 13.2781 68.4236 13.1521 68.1062 13.1521C67.7889 13.1521 67.5416 13.2781 67.3642 13.5301C67.1869 13.7728 67.0982 14.1414 67.0982 14.6361C67.0982 15.1308 67.1869 15.5041 67.3642 15.7561C67.5416 15.9988 67.7889 16.1201 68.1062 16.1201C68.4236 16.1201 68.6709 15.9988 68.8482 15.7561C69.0349 15.5041 69.1282 15.1308 69.1282 14.6361Z" fill="#422B2B"/>
<defs>
<radialGradient id="paint0_radial_1_1675" cx="0" cy="0" r="1" gradientUnits="userSpaceOnUse" gradientTransform="translate(53.1666 12.5) scale(37 12.5)">
<stop stop-color="#FF0000"/>
<stop offset="0.09" stop-color="#F50000"/>
<stop offset="0.23" stop-color="#DA0000"/>
<stop offset="0.42" stop-color="#AE0000"/>
<stop offset="0.64" stop-color="#710000"/>
<stop offset="0.89" stop-color="#250000"/>
<stop offset="1"/>
</radialGradient>
<radialGradient id="paint1_radial_1_1675" cx="0" cy="0" r="1" gradientUnits="userSpaceOnUse" gradientTransform="translate(52.857 12.735) scale(27.4545 8.45531)">
<stop offset="0.58" stop-color="#FF7D00"/>
<stop offset="0.73" stop-color="#FF5700"/>
<stop offset="0.88" stop-color="#FF2900"/>
<stop offset="1" stop-color="#FF0000"/>
</radialGradient>
<radialGradient id="paint2_radial_1_1675" cx="0" cy="0" r="1" gradientUnits="userSpaceOnUse" gradientTransform="translate(52.8851 12.6178) scale(25.4454 8.12252)">
<stop stop-color="#FF00FF"/>
<stop offset="0.1" stop-color="#D000D0"/>
<stop offset="0.23" stop-color="#990099"/>
<stop offset="0.37" stop-color="#6A006A"/>
<stop offset="0.5" stop-color="#440044"/>
<stop offset="0.63" stop-color="#260026"/>
<stop offset="0.76" stop-color="#110011"/>
<stop offset="0.88" stop-color="#040004"/>
<stop offset="1"/>
</radialGradient>
<radialGradient id="paint3_radial_1_1675" cx="0" cy="0" r="1" gradientUnits="userSpaceOnUse" gradientTransform="translate(53.5351 11.513) scale(25.4461 8.12252)">
<stop stop-color="#FFFF00"/>
<stop offset="0.1" stop-color="#D0D000"/>
<stop offset="0.23" stop-color="#999900"/>
<stop offset="0.37" stop-color="#6A6A00"/>
<stop offset="0.5" stop-color="#444400"/>
<stop offset="0.63" stop-color="#262600"/>
<stop offset="0.76" stop-color="#111100"/>
<stop offset="0.88" stop-color="#040400"/>
<stop offset="1"/>
</radialGradient>
<linearGradient id="paint4_linear_1_1675" x1="71.9955" y1="7.0689" x2="62.6515" y2="27.7565" gradientUnits="userSpaceOnUse">
<stop stop-color="#FFFF00"/>
<stop offset="0.1" stop-color="#D0D000"/>
<stop offset="0.23" stop-color="#999900"/>
<stop offset="0.37" stop-color="#6A6A00"/>
<stop offset="0.5" stop-color="#444400"/>
<stop offset="0.63" stop-color="#262600"/>
<stop offset="0.76" stop-color="#111100"/>
<stop offset="0.88" stop-color="#040400"/>
<stop offset="1"/>
</linearGradient>
<linearGradient id="paint5_linear_1_1675" x1="39.322" y1="19.6023" x2="42.1244" y2="5.7159" gradientUnits="userSpaceOnUse">
<stop stop-color="#FF00FF"/>
<stop offset="0.1" stop-color="#D000D0"/>
<stop offset="0.23" stop-color="#990099"/>
<stop offset="0.37" stop-color="#6A006A"/>
<stop offset="0.5" stop-color="#440044"/>
<stop offset="0.63" stop-color="#260026"/>
<stop offset="0.76" stop-color="#110011"/>
<stop offset="0.88" stop-color="#040004"/>
<stop offset="1"/>
</linearGradient>
<radialGradient id="paint6_radial_1_1675" cx="0" cy="0" r="1" gradientUnits="userSpaceOnUse" gradientTransform="translate(44.5374 17.8454) rotate(-3.06805) scale(7.59265 2.4364)">
<stop stop-color="#FFC700"/>
<stop offset="0.1" stop-color="#D0A200"/>
<stop offset="0.23" stop-color="#997800"/>
<stop offset="0.37" stop-color="#6A5300"/>
<stop offset="0.5" stop-color="#443500"/>
<stop offset="0.63" stop-color="#261D00"/>
<stop offset="0.76" stop-color="#110D00"/>
<stop offset="0.88" stop-color="#040300"/>
<stop offset="1"/>
</radialGradient>
<radialGradient id="paint7_radial_1_1675" cx="0" cy="0" r="1" gradientUnits="userSpaceOnUse" gradientTransform="translate(-35.5355 12.1558) rotate(3.01676) scale(10.211 3.03493)">
<stop stop-color="#FFC700"/>
<stop offset="0.1" stop-color="#D0A200"/>
<stop offset="0.23" stop-color="#997800"/>
<stop offset="0.37" stop-color="#6A5300"/>
<stop offset="0.5" stop-color="#443500"/>
<stop offset="0.63" stop-color="#261D00"/>
<stop offset="0.76" stop-color="#110D00"/>
<stop offset="0.88" stop-color="#040300"/>
<stop offset="1"/>
</radialGradient>
<clipPath id="clip0_1_1675">
<rect width="30" height="12" fill="white" transform="translate(44.3331 32)"/>
</clipPath>
</defs>
</svg>
