<svg width="104" height="91" viewBox="0 0 104 91" fill="none" xmlns="http://www.w3.org/2000/svg">
<rect x="0.666504" y="13.5" width="102" height="77" rx="7.5" fill="#212020"/>
<rect x="0.666504" y="13.5" width="102" height="77" rx="7.5" stroke="#393737"/>
<path d="M31.1545 35.2C31.7625 34.9653 32.3545 34.6667 32.9305 34.304C33.5065 33.9307 34.0345 33.4667 34.5145 32.912H35.5705V44H34.0825V34.976C33.9545 35.0933 33.7945 35.216 33.6025 35.344C33.4212 35.472 33.2185 35.5947 32.9945 35.712C32.7812 35.8293 32.5518 35.9413 32.3065 36.048C32.0718 36.1547 31.8425 36.2453 31.6185 36.32L31.1545 35.2Z" fill="#F6F4F4"/>
<g clip-path="url(#clip0_1_1555)">
<path d="M73.005 34.9197C72.6709 33.68 71.6109 32.7924 70.3609 32.6908C63.8105 32.1604 57.3263 32.2715 51.9892 33.0929C48.8698 33.5747 46.1437 34.2974 44.0225 35.277C46.7088 44.5508 60.3849 46.8634 62.2978 38.3502C62.3097 38.2961 62.3242 38.242 62.3415 38.1891C62.3889 38.043 62.455 37.9036 62.5475 37.7817C62.7192 37.5598 62.9383 37.4122 63.1773 37.3366H63.1787C63.8678 37.116 64.6982 37.4937 64.8577 38.4177C65.4043 41.9768 67.6167 43.7143 70.8496 43.5668C71.4436 43.5398 71.9769 43.188 72.2449 42.6439C72.332 42.4653 72.4151 42.2773 72.4929 42.0824C73.3234 39.9903 73.5689 37.0078 73.0052 34.9197H73.005ZM59.3658 35.1755C59.7696 35.2322 60.0733 35.5801 60.0957 35.9968C60.3361 40.5058 55.589 42.4464 52.145 40.1648C51.5087 39.7439 51.0282 39.1119 50.7628 38.3854C50.681 38.1622 50.6135 37.9403 50.5607 37.7183C50.3575 36.8589 50.8156 35.9767 51.6273 35.679C53.5229 34.9863 56.2952 34.7425 59.3658 35.1757V35.1755ZM66.6368 36.101C66.6816 35.6869 66.9839 35.3512 67.3812 35.2619C68.9204 34.9168 70.3778 34.902 71.4826 35.6273C72.0264 35.9846 72.3367 36.618 72.3367 37.2796C72.3327 39.9833 71.3572 41.6708 69.4312 41.0985C68.8755 40.9335 68.3885 40.5923 67.9897 40.1634C66.8755 38.9618 66.4847 37.4582 66.6365 36.101H66.6368Z" fill="#F2C94C"/>
<g opacity="0.6">
<path d="M50.0489 38.4419C50.1017 38.6639 50.169 38.8859 50.251 39.1091C50.5164 39.8358 50.9969 40.4677 51.6332 40.8885C54.2475 42.6202 57.6103 41.9177 58.975 39.5075C57.4001 41.3173 54.4753 41.7086 52.145 40.1648C51.5087 39.7439 51.0282 39.1119 50.7628 38.3854C50.681 38.1622 50.6135 37.9403 50.5607 37.7183C50.4769 37.3636 50.507 37.0059 50.6268 36.686C50.1326 37.0966 49.8913 37.7755 50.0489 38.4419Z" fill="white"/>
<path d="M62.0355 38.5056C61.943 38.6275 61.8771 38.7669 61.8295 38.9129C61.8122 38.9656 61.7977 39.0197 61.7858 39.0739C61.6061 39.8734 61.3226 40.5774 60.9542 41.1892C61.5751 40.4292 62.042 39.4872 62.2976 38.3502C62.3069 38.3078 62.3191 38.2659 62.3317 38.224C62.2231 38.299 62.1229 38.3921 62.0353 38.5054L62.0355 38.5056Z" fill="white"/>
<path d="M73.005 34.9197C72.6709 33.68 71.6109 32.7924 70.3609 32.6908C63.8105 32.1604 57.3263 32.2715 51.9892 33.0929C48.8698 33.5747 46.1437 34.2974 44.0225 35.277C44.0655 35.4257 44.1117 35.5727 44.1603 35.7178C46.1776 34.8809 48.667 34.2507 51.4774 33.8165C56.8145 32.9952 63.2987 32.8841 69.8489 33.4147C71.0991 33.5163 72.1591 34.4039 72.4929 35.6436C73.0566 37.7317 72.8111 40.7141 71.9807 42.8063C71.9283 42.9373 71.873 43.0635 71.8162 43.1875C71.9914 43.041 72.1388 42.8583 72.2442 42.6442C72.3313 42.4655 72.4144 42.2776 72.4922 42.0827C73.3227 39.9905 73.5682 37.008 73.0045 34.92L73.005 34.9197Z" fill="white"/>
<path d="M66.6424 36.0715C66.3616 36.2169 66.1607 36.4946 66.125 36.8249C65.9731 38.1821 66.3639 39.6857 67.4782 40.8873C67.8769 41.3161 68.364 41.6574 68.9197 41.8224C70.0514 42.1588 70.8545 41.7141 71.3257 40.7419C70.8564 41.1861 70.2248 41.3343 69.4315 41.0987C68.8758 40.9337 68.3887 40.5925 67.99 40.1636C66.8757 38.962 66.4849 37.4585 66.6368 36.1012C66.638 36.0912 66.641 36.0816 66.6424 36.0715Z" fill="white"/>
</g>
<path d="M55.2304 44C50.784 44 45.3193 41.0348 43.6819 35.3807C43.6312 35.2056 43.7146 35.0191 43.8767 34.9442C49.3712 32.4069 59.2823 31.4287 70.3891 32.3271C71.787 32.4401 72.9764 33.4427 73.3483 34.822C73.982 37.1718 73.6442 40.605 72.5622 42.8077C72.2378 43.4679 71.5879 43.8985 70.8657 43.9313C67.3812 44.0903 65.0635 42.1006 64.5066 38.474C64.4351 38.0614 64.18 37.7657 63.8079 37.6699C63.4428 37.5763 63.0578 37.7085 62.8271 38.008C62.7455 38.1139 62.6843 38.2568 62.6449 38.4324C61.8885 41.7977 59.2337 43.8772 55.5434 43.9947C55.4399 43.9981 55.3351 43.9998 55.2304 43.9998V44ZM44.4576 35.4796C46.1413 40.7151 51.368 43.398 55.5212 43.2658C58.9181 43.1576 61.262 41.3363 61.9511 38.2688C62.0144 37.9874 62.1211 37.7477 62.2681 37.5564C62.672 37.0315 63.344 36.7983 63.9812 36.9623C64.6278 37.1287 65.0864 37.6488 65.2083 38.3536C65.7105 41.6248 67.7073 43.3437 70.8339 43.2021C71.299 43.1811 71.7176 42.904 71.9262 42.4794C72.921 40.4539 73.2443 37.1757 72.6618 35.0165C72.3693 33.932 71.4333 33.1434 70.3326 33.0546C59.5334 32.181 49.904 33.0872 44.4576 35.4796Z" fill="#212020"/>
<path d="M70.1374 41.512C69.8865 41.512 69.6226 41.4716 69.3486 41.3901C68.7798 41.2211 68.2357 40.8693 67.7751 40.3727C66.6898 39.2029 66.1675 37.6333 66.3418 36.0665C66.402 35.5256 66.7942 35.0833 67.3177 34.9657C69.1766 34.5483 70.5917 34.6812 71.6434 35.3721C72.264 35.7799 72.634 36.4934 72.6331 37.2808C72.631 39.1459 72.1916 40.4689 71.3624 41.1066C71.0122 41.376 70.5971 41.512 70.1374 41.512ZM67.4446 35.5596C67.1689 35.6216 66.9627 35.8529 66.9311 36.1352C66.7767 37.5226 67.2409 38.9144 68.2049 39.9534C68.5934 40.372 69.0461 40.6667 69.514 40.8059C70.1129 40.984 70.6146 40.9213 71.0066 40.62C71.6712 40.1088 72.0384 38.9225 72.0403 37.2798C72.041 36.7097 71.7662 36.1747 71.3236 35.8838C70.4112 35.2844 69.1425 35.1781 67.4448 35.5593L67.4446 35.5596Z" fill="#212020"/>
<path d="M55.2847 41.427C54.1501 41.427 52.9931 41.0889 51.9833 40.4201C51.308 39.9728 50.7756 39.2879 50.4846 38.492C50.3993 38.2587 50.3283 38.0229 50.273 37.7906C50.0314 36.7741 50.571 35.7437 51.528 35.3934C53.5717 34.6455 56.4431 34.4561 59.4066 34.8742C59.9474 34.9506 60.3618 35.4156 60.3917 35.9803C60.5003 38.0133 59.6367 39.7304 58.0221 40.6912C57.195 41.1835 56.2478 41.4273 55.2847 41.4273V41.427ZM51.7275 35.9659C51.0576 36.2111 50.6801 36.9336 50.8495 37.6464C50.899 37.8552 50.9632 38.0679 51.0401 38.2784C51.2867 38.9532 51.7359 39.5324 52.3052 39.9091C53.9868 41.0228 56.1142 41.1234 57.7243 40.1648C59.1392 39.3229 59.8953 37.8097 59.7995 36.0131C59.7848 35.7387 59.5856 35.5129 59.3256 35.4762C56.4543 35.0711 53.6846 35.2495 51.7275 35.9657V35.9659Z" fill="#212020"/>
<g opacity="0.3">
<path d="M62.3413 38.1893C62.3242 38.242 62.3095 38.2961 62.2976 38.3505C60.3849 46.8635 46.7088 44.5508 44.0225 35.277C46.144 34.2974 48.8698 33.5747 51.9892 33.0929C51.8242 33.2418 51.6591 33.3905 51.4942 33.538L51.6974 33.5677C50.8326 34.0347 49.9034 34.5732 49.5364 35.5016C49.2129 36.3177 49.407 37.2487 49.6857 38.0837C50.0501 39.1797 50.5834 40.2664 51.4771 40.9742C52.7813 42.0067 54.5741 42.0379 56.2176 41.9174C57.0256 41.8566 57.8427 41.7685 58.6003 41.4723C60.2793 40.8174 61.445 39.2367 62.2779 37.6048C62.3018 37.7983 62.3242 37.9932 62.3413 38.1893Z" fill="#212020"/>
</g>
<g opacity="0.3">
<path d="M72.4927 42.0824C72.4149 42.2773 72.3318 42.4653 72.2446 42.6439C71.9767 43.188 71.4434 43.5398 70.8494 43.5668C67.6165 43.7143 65.4041 41.9768 64.8575 38.4177C64.6977 37.4934 63.8676 37.116 63.1785 37.3366H63.1771C63.0542 37.3392 62.933 37.3651 62.8141 37.4218C62.8603 37.2947 62.9066 37.1675 62.9526 37.0389L62.616 37.4503C62.8708 36.7264 63.8304 36.4774 64.5169 36.7899C65.2035 37.1038 65.6417 37.8062 65.9267 38.5193C66.2119 39.2312 66.3847 39.9929 66.7503 40.6655C67.5015 42.0527 69.0881 42.9133 70.6286 42.7725C71.2953 42.7117 71.9368 42.4641 72.4925 42.0824H72.4927Z" fill="#212020"/>
</g>
</g>
<path d="M44.1434 65.344C44.1434 67.5413 43.5941 69.2053 42.4954 70.336C41.4074 71.456 39.7861 72.0213 37.6314 72.032L37.5834 70.784C38.2554 70.784 38.8581 70.72 39.3914 70.592C39.9354 70.464 40.4101 70.2613 40.8154 69.984C41.2208 69.696 41.5568 69.328 41.8234 68.88C42.1008 68.432 42.3034 67.8827 42.4314 67.232C42.1541 67.36 41.8394 67.4667 41.4874 67.552C41.1354 67.6267 40.7728 67.664 40.3994 67.664C39.7701 67.664 39.2368 67.5733 38.7994 67.392C38.3621 67.2 38.0048 66.9493 37.7274 66.64C37.4501 66.32 37.2474 65.9573 37.1194 65.552C37.0021 65.136 36.9434 64.704 36.9434 64.256C36.9434 63.8613 37.0128 63.4507 37.1514 63.024C37.2901 62.5973 37.4981 62.208 37.7754 61.856C38.0634 61.504 38.4261 61.216 38.8634 60.992C39.3008 60.768 39.8181 60.656 40.4154 60.656C41.0234 60.656 41.5568 60.7627 42.0154 60.976C42.4848 61.1893 42.8741 61.4987 43.1834 61.904C43.5034 62.3093 43.7434 62.8053 43.9034 63.392C44.0634 63.968 44.1434 64.6187 44.1434 65.344ZM40.5594 66.448C40.9328 66.448 41.2848 66.416 41.6154 66.352C41.9461 66.2773 42.2661 66.1707 42.5754 66.032C42.5861 65.9147 42.5914 65.8027 42.5914 65.696C42.5914 65.5787 42.5914 65.4613 42.5914 65.344C42.5914 64.8853 42.5594 64.448 42.4954 64.032C42.4314 63.6053 42.3141 63.2373 42.1434 62.928C41.9834 62.608 41.7648 62.3573 41.4874 62.176C41.2101 61.984 40.8581 61.888 40.4314 61.888C40.0794 61.888 39.7808 61.9627 39.5354 62.112C39.2901 62.2613 39.0874 62.4533 38.9274 62.688C38.7674 62.912 38.6501 63.1627 38.5754 63.44C38.5114 63.7067 38.4794 63.968 38.4794 64.224C38.4794 64.9493 38.6501 65.504 38.9914 65.888C39.3434 66.2613 39.8661 66.448 40.5594 66.448ZM53.1747 65.344C53.1747 67.5413 52.6254 69.2053 51.5267 70.336C50.4387 71.456 48.8174 72.0213 46.6627 72.032L46.6147 70.784C47.2867 70.784 47.8894 70.72 48.4227 70.592C48.9667 70.464 49.4414 70.2613 49.8467 69.984C50.252 69.696 50.588 69.328 50.8547 68.88C51.132 68.432 51.3347 67.8827 51.4627 67.232C51.1854 67.36 50.8707 67.4667 50.5187 67.552C50.1667 67.6267 49.804 67.664 49.4307 67.664C48.8014 67.664 48.268 67.5733 47.8307 67.392C47.3934 67.2 47.036 66.9493 46.7587 66.64C46.4814 66.32 46.2787 65.9573 46.1507 65.552C46.0334 65.136 45.9747 64.704 45.9747 64.256C45.9747 63.8613 46.044 63.4507 46.1827 63.024C46.3214 62.5973 46.5294 62.208 46.8067 61.856C47.0947 61.504 47.4574 61.216 47.8947 60.992C48.332 60.768 48.8494 60.656 49.4467 60.656C50.0547 60.656 50.588 60.7627 51.0467 60.976C51.516 61.1893 51.9054 61.4987 52.2147 61.904C52.5347 62.3093 52.7747 62.8053 52.9347 63.392C53.0947 63.968 53.1747 64.6187 53.1747 65.344ZM49.5907 66.448C49.964 66.448 50.316 66.416 50.6467 66.352C50.9774 66.2773 51.2974 66.1707 51.6067 66.032C51.6174 65.9147 51.6227 65.8027 51.6227 65.696C51.6227 65.5787 51.6227 65.4613 51.6227 65.344C51.6227 64.8853 51.5907 64.448 51.5267 64.032C51.4627 63.6053 51.3454 63.2373 51.1747 62.928C51.0147 62.608 50.796 62.3573 50.5187 62.176C50.2414 61.984 49.8894 61.888 49.4627 61.888C49.1107 61.888 48.812 61.9627 48.5667 62.112C48.3214 62.2613 48.1187 62.4533 47.9587 62.688C47.7987 62.912 47.6814 63.1627 47.6067 63.44C47.5427 63.7067 47.5107 63.968 47.5107 64.224C47.5107 64.9493 47.6814 65.504 48.0227 65.888C48.3747 66.2613 48.8974 66.448 49.5907 66.448ZM59.4451 72V60.576H62.4531C63.8504 60.576 64.8851 60.8587 65.5571 61.424C66.2397 61.9893 66.5811 62.8107 66.5811 63.888C66.5811 64.6133 66.4157 65.2373 66.0851 65.76C65.7544 66.272 65.2637 66.6667 64.6131 66.944C63.9731 67.2213 63.1784 67.36 62.2291 67.36H60.8851V72H59.4451ZM58.0531 69.824V68.784H63.5251V69.824H58.0531ZM58.0531 67.36V66.144H61.7171V67.36H58.0531ZM62.0211 66.144C62.6717 66.144 63.2211 66.0747 63.6691 65.936C64.1277 65.7973 64.4797 65.568 64.7251 65.248C64.9704 64.928 65.0931 64.4907 65.0931 63.936C65.0931 63.2107 64.8691 62.672 64.4211 62.32C63.9731 61.968 63.2744 61.792 62.3251 61.792H60.8851V66.144H62.0211Z" fill="#F6F4F4"/>
<defs>
<clipPath id="clip0_1_1555">
<rect width="30" height="12" fill="white" transform="translate(43.6665 32)"/>
</clipPath>
</defs>
</svg>
