<svg width="75" height="25" viewBox="0 0 75 25" fill="none" xmlns="http://www.w3.org/2000/svg">
<path style="mix-blend-mode:screen" d="M37.8333 25C58.2679 25 74.8333 19.4036 74.8333 12.5C74.8333 5.59644 58.2679 0 37.8333 0C17.3988 0 0.833344 5.59644 0.833344 12.5C0.833344 19.4036 17.3988 25 37.8333 25Z" fill="url(#paint0_radial_1_1617)"/>
<path d="M37.5238 21.1903C52.6865 21.1903 64.9783 17.4047 64.9783 12.735C64.9783 8.06523 52.6865 4.27966 37.5238 4.27966C22.361 4.27966 10.0692 8.06523 10.0692 12.735C10.0692 17.4047 22.361 21.1903 37.5238 21.1903Z" fill="url(#paint1_radial_1_1617)"/>
<path style="mix-blend-mode:screen" d="M62.3785 14.3987C65.4608 10.022 56.8447 5.67636 43.1338 4.69243C29.4229 3.70851 15.8093 6.4589 12.7269 10.8356C9.6446 15.2123 18.2607 19.558 31.9716 20.5419C45.6825 21.5258 59.2961 18.7754 62.3785 14.3987Z" fill="url(#paint2_radial_1_1617)"/>
<g style="mix-blend-mode:multiply" opacity="0.1">
<path d="M18.1609 13.3739C27.0308 12.7663 20.9141 15.9893 20.9141 15.9893L30.4666 14.8763C33.3238 14.5435 36.2578 14.2701 39.2461 14.0671C43.6674 13.766 50.0735 13.2385 48.7489 12.7787C46.7642 12.0896 47.7045 11.094 36.7189 11.7554C25.7333 12.4169 37.1258 9.64679 41.8682 9.64679C43.1656 9.64679 32.7768 10.4104 35.218 11.1506C37.6593 11.8894 47.6051 9.52665 51.3529 10.3994C51.3529 10.3994 46.1539 10.5264 46.9948 11.5069C47.8356 12.4873 54.3366 12.9499 59.4587 11.0608C64.5808 9.17176 46.615 9.64817 46.615 9.64817C46.615 9.64817 55.4849 7.2951 59.843 8.88729C61.6106 9.53356 62.8855 9.75312 63.7761 9.78764C62.6052 8.83896 60.8828 7.95518 58.6766 7.18325C55.8466 6.76345 52.257 6.7745 48.1069 7.95518C37.5914 10.9476 25.7378 9.66751 32.3925 8.0767C39.0426 6.48589 44.9333 6.93192 44.9333 6.93192C44.9333 6.93192 33.6945 7.73285 35.2994 8.46473C36.9043 9.19523 52.3474 7.62928 50.4396 6.2898C48.5273 4.95032 31.859 6.2898 31.859 6.2898C31.859 6.2898 38.7849 6.08542 36.0498 6.77726C33.3147 7.46772 20.9277 8.38878 22.6863 9.58741C24.4449 10.7847 34.9106 10.0721 34.9106 10.0721C34.9106 10.0721 24.6438 13.1446 36.0498 12.1863C47.4604 11.2293 48.9116 12.4666 46.1584 12.8864C43.4052 13.3062 17.9439 15.8374 25.2089 11.7582C25.2089 11.7582 12.433 14.2066 16.6781 11.1534C20.9277 8.09879 14.5036 9.87188 14.5036 9.87188C14.5036 9.87188 20.1772 5.92386 22.9123 7.11834C25.6474 8.31283 18.5542 8.64977 18.5542 8.64977C18.5542 8.64977 24.6709 8.87072 29.3364 6.48727C32.2478 5.00003 28.5724 4.97793 25.4033 5.17264C19.6302 6.04676 14.8155 7.534 12.1256 9.49213C10.9457 10.3483 10.2675 11.2293 10.037 12.1076C12.0035 11.6049 14.5849 10.8786 14.5849 10.8786C14.5849 10.8786 9.30913 13.9842 18.179 13.378L18.1609 13.3739Z" fill="#FF1E00"/>
</g>
<path style="mix-blend-mode:screen" d="M63.0324 13.2919C66.1124 8.91503 57.4936 4.56986 43.7818 3.5867C30.07 2.60354 16.4576 5.35469 13.3775 9.73157C10.2975 14.1084 18.9163 18.4536 32.6281 19.4368C46.3399 20.4199 59.9523 17.6688 63.0324 13.2919Z" fill="url(#paint3_radial_1_1617)"/>
<path style="mix-blend-mode:screen" opacity="0.38" d="M62.6953 13.5469C57.2345 15.5479 44.98 8.92504 28.1595 12.4671C11.339 16.0105 8.26735 10.0035 18.5893 7.13124C26.656 4.88726 34.2799 3.93995 47.4429 5.2891C60.606 6.63687 66.3297 12.2144 62.6953 13.5469Z" fill="url(#paint4_linear_1_1617)"/>
<path style="mix-blend-mode:screen" opacity="0.38" d="M12.2895 11.6011C17.934 9.64568 29.5922 16.3652 46.738 12.9613C63.8883 9.55731 66.4129 15.5864 55.8254 18.373C47.5502 20.5507 39.8381 21.4345 26.7953 19.9804C13.7525 18.5249 8.53264 12.9046 12.2895 11.6011Z" fill="url(#paint5_linear_1_1617)"/>
<g style="mix-blend-mode:multiply" opacity="0.1">
<path d="M56.9227 12.0803C48.0528 12.6879 54.1695 9.46488 54.1695 9.46488L44.617 10.5779C41.7598 10.9107 38.8258 11.1841 35.8375 11.3871C31.4162 11.6881 25.0101 12.2157 26.3347 12.6755C28.3194 13.3646 27.379 14.3602 38.3647 13.6987C49.3503 13.0373 37.9578 15.8074 33.2154 15.8074C31.918 15.8074 42.3068 15.0438 39.8656 14.3036C37.4243 13.5648 27.4785 15.9275 23.7307 15.0548C23.7307 15.0548 28.9297 14.9278 28.0888 13.9473C27.2479 12.9669 20.747 12.5043 15.6249 14.3933C10.5028 16.2824 28.4686 15.806 28.4686 15.806C28.4686 15.806 19.5987 18.1591 15.2406 16.5669C13.473 15.9206 12.1981 15.7011 11.3075 15.6665C12.4784 16.6152 14.2008 17.499 16.407 18.2709C19.237 18.6907 22.8266 18.6797 26.9767 17.499C37.4921 14.5066 49.3458 15.7867 42.6911 17.3775C36.041 18.9683 30.1503 18.5223 30.1503 18.5223C30.1503 18.5223 41.3891 17.7213 39.7842 16.9895C38.1793 16.259 22.7362 17.8249 24.6439 19.1644C26.5563 20.5039 43.2246 19.1644 43.2246 19.1644C43.2246 19.1644 36.2986 19.3688 39.0337 18.6769C41.7689 17.9865 54.1559 17.0654 52.3973 15.8668C50.6387 14.6695 40.173 15.3821 40.173 15.3821C40.173 15.3821 50.4398 12.3096 39.0337 13.2679C27.6232 14.2249 26.172 12.9876 28.9252 12.5678C31.6784 12.148 57.1397 9.61678 49.8747 13.696C49.8747 13.696 62.6506 11.2476 58.4055 14.3008C54.1604 17.354 60.58 15.5823 60.58 15.5823C60.58 15.5823 54.9064 19.5303 52.1713 18.3358C49.4362 17.1414 56.5294 16.8044 56.5294 16.8044C56.5294 16.8044 50.4127 16.5835 45.7472 18.9669C42.8358 20.4542 46.5112 20.4763 49.6803 20.2815C55.4534 19.4074 60.2681 17.9202 62.958 15.9621C64.1334 15.1059 64.816 14.2249 65.0466 13.3466C63.08 13.8493 60.4987 14.5756 60.4987 14.5756C60.4987 14.5756 65.7745 11.47 56.9046 12.0762L56.9227 12.0803Z" fill="#FF1E00"/>
</g>
<g opacity="0.71">
<path d="M19.686 17.2144C15.1723 17.6315 32.8705 18.9005 35.935 18.4504C39.0233 18.0002 23.4869 16.8637 19.686 17.2144Z" fill="#FF7900"/>
<path style="mix-blend-mode:screen" d="M35.3691 17.5222C39.5203 18.6449 39.4769 19.7372 35.2604 19.9637C31.0439 20.1888 24.2737 19.4624 20.1115 18.3397C15.9603 17.217 16.0037 16.1247 20.2202 15.8983C24.4367 15.6732 31.2069 16.3995 35.3691 17.5222Z" fill="url(#paint6_radial_1_1617)"/>
</g>
<g opacity="0.71">
<path d="M18.7609 14.9208C8.33944 15.0989 20.8295 17.4741 29.5726 17.1758C38.3157 16.8775 27.543 14.7703 18.7609 14.9208Z" fill="#FF7900"/>
<path style="mix-blend-mode:screen" d="M28.1981 19.3039C33.3177 19.0431 35.5125 17.4342 33.1002 15.7105C30.688 13.9867 24.5822 12.8008 19.4626 13.0617C14.343 13.3225 12.1483 14.9313 14.5605 16.655C16.9727 18.3788 23.0785 19.5647 28.1981 19.3039Z" fill="url(#paint7_radial_1_1617)"/>
</g>
<path d="M33.9808 17.0581C33.7102 16.5074 33.3695 15.9008 32.9588 15.2381C32.5482 14.5754 32.1188 13.9361 31.6708 13.3201C31.4842 13.5628 31.2788 13.8521 31.0548 14.1881C30.8402 14.5241 30.6208 14.8694 30.3968 15.2241C30.1822 15.5694 29.9815 15.9054 29.7948 16.2321C29.6082 16.5588 29.4588 16.8341 29.3468 17.0581H27.3448C27.7648 16.2648 28.2502 15.4528 28.8008 14.6221C29.3515 13.7821 29.9488 12.9048 30.5928 11.9901L27.4848 7.35611H29.5848L31.7268 10.6741L33.8408 7.35611H35.8568L32.7908 11.9761C33.5002 12.9374 34.1255 13.8474 34.6668 14.7061C35.2175 15.5648 35.6795 16.3488 36.0528 17.0581H33.9808ZM43.756 9.73611V17.0581H42.076C42.076 16.5261 42.076 15.9988 42.076 15.4761C42.0853 14.9534 42.09 14.4681 42.09 14.0201C42.0993 13.5721 42.104 13.1848 42.104 12.8581C42.1133 12.5221 42.118 12.2748 42.118 12.1161C41.838 12.4801 41.5487 12.8814 41.25 13.3201C40.9513 13.7588 40.6527 14.1974 40.354 14.6361C40.0647 15.0748 39.7893 15.5041 39.528 15.9241C39.2667 16.3441 39.038 16.7221 38.842 17.0581H37.344V9.73611H39.01C39.01 10.2774 39.0053 10.7954 38.996 11.2901C38.996 11.7754 38.996 12.2188 38.996 12.6201C38.996 13.0214 38.9913 13.3714 38.982 13.6701C38.982 13.9688 38.982 14.1974 38.982 14.3561C39.2433 13.9548 39.514 13.5441 39.794 13.1241C40.074 12.6948 40.354 12.2794 40.634 11.8781C40.9233 11.4674 41.208 11.0801 41.488 10.7161C41.768 10.3521 42.0387 10.0254 42.3 9.73611H43.756ZM51.4323 11.1501H49.0663V17.0581H47.3723V11.1501H45.0203V9.73611H51.4323V11.1501Z" fill="#422B2B"/>
<defs>
<radialGradient id="paint0_radial_1_1617" cx="0" cy="0" r="1" gradientUnits="userSpaceOnUse" gradientTransform="translate(37.8333 12.5) scale(37 12.5)">
<stop stop-color="#FF0000"/>
<stop offset="0.09" stop-color="#F50000"/>
<stop offset="0.23" stop-color="#DA0000"/>
<stop offset="0.42" stop-color="#AE0000"/>
<stop offset="0.64" stop-color="#710000"/>
<stop offset="0.89" stop-color="#250000"/>
<stop offset="1"/>
</radialGradient>
<radialGradient id="paint1_radial_1_1617" cx="0" cy="0" r="1" gradientUnits="userSpaceOnUse" gradientTransform="translate(37.5238 12.735) scale(27.4545 8.45531)">
<stop offset="0.58" stop-color="#FF7D00"/>
<stop offset="0.73" stop-color="#FF5700"/>
<stop offset="0.88" stop-color="#FF2900"/>
<stop offset="1" stop-color="#FF0000"/>
</radialGradient>
<radialGradient id="paint2_radial_1_1617" cx="0" cy="0" r="1" gradientUnits="userSpaceOnUse" gradientTransform="translate(37.5518 12.6178) scale(25.4454 8.12252)">
<stop stop-color="#FF00FF"/>
<stop offset="0.1" stop-color="#D000D0"/>
<stop offset="0.23" stop-color="#990099"/>
<stop offset="0.37" stop-color="#6A006A"/>
<stop offset="0.5" stop-color="#440044"/>
<stop offset="0.63" stop-color="#260026"/>
<stop offset="0.76" stop-color="#110011"/>
<stop offset="0.88" stop-color="#040004"/>
<stop offset="1"/>
</radialGradient>
<radialGradient id="paint3_radial_1_1617" cx="0" cy="0" r="1" gradientUnits="userSpaceOnUse" gradientTransform="translate(38.2019 11.513) scale(25.4461 8.12252)">
<stop stop-color="#FFFF00"/>
<stop offset="0.1" stop-color="#D0D000"/>
<stop offset="0.23" stop-color="#999900"/>
<stop offset="0.37" stop-color="#6A6A00"/>
<stop offset="0.5" stop-color="#444400"/>
<stop offset="0.63" stop-color="#262600"/>
<stop offset="0.76" stop-color="#111100"/>
<stop offset="0.88" stop-color="#040400"/>
<stop offset="1"/>
</radialGradient>
<linearGradient id="paint4_linear_1_1617" x1="56.6623" y1="7.0689" x2="47.3183" y2="27.7565" gradientUnits="userSpaceOnUse">
<stop stop-color="#FFFF00"/>
<stop offset="0.1" stop-color="#D0D000"/>
<stop offset="0.23" stop-color="#999900"/>
<stop offset="0.37" stop-color="#6A6A00"/>
<stop offset="0.5" stop-color="#444400"/>
<stop offset="0.63" stop-color="#262600"/>
<stop offset="0.76" stop-color="#111100"/>
<stop offset="0.88" stop-color="#040400"/>
<stop offset="1"/>
</linearGradient>
<linearGradient id="paint5_linear_1_1617" x1="23.9888" y1="19.6023" x2="26.7911" y2="5.7159" gradientUnits="userSpaceOnUse">
<stop stop-color="#FF00FF"/>
<stop offset="0.1" stop-color="#D000D0"/>
<stop offset="0.23" stop-color="#990099"/>
<stop offset="0.37" stop-color="#6A006A"/>
<stop offset="0.5" stop-color="#440044"/>
<stop offset="0.63" stop-color="#260026"/>
<stop offset="0.76" stop-color="#110011"/>
<stop offset="0.88" stop-color="#040004"/>
<stop offset="1"/>
</linearGradient>
<radialGradient id="paint6_radial_1_1617" cx="0" cy="0" r="1" gradientUnits="userSpaceOnUse" gradientTransform="translate(29.2042 17.8454) rotate(-3.06805) scale(7.59265 2.4364)">
<stop stop-color="#FFC700"/>
<stop offset="0.1" stop-color="#D0A200"/>
<stop offset="0.23" stop-color="#997800"/>
<stop offset="0.37" stop-color="#6A5300"/>
<stop offset="0.5" stop-color="#443500"/>
<stop offset="0.63" stop-color="#261D00"/>
<stop offset="0.76" stop-color="#110D00"/>
<stop offset="0.88" stop-color="#040300"/>
<stop offset="1"/>
</radialGradient>
<radialGradient id="paint7_radial_1_1617" cx="0" cy="0" r="1" gradientUnits="userSpaceOnUse" gradientTransform="translate(-50.8687 12.1558) rotate(3.01676) scale(10.211 3.03493)">
<stop stop-color="#FFC700"/>
<stop offset="0.1" stop-color="#D0A200"/>
<stop offset="0.23" stop-color="#997800"/>
<stop offset="0.37" stop-color="#6A5300"/>
<stop offset="0.5" stop-color="#443500"/>
<stop offset="0.63" stop-color="#261D00"/>
<stop offset="0.76" stop-color="#110D00"/>
<stop offset="0.88" stop-color="#040300"/>
<stop offset="1"/>
</radialGradient>
</defs>
</svg>
